<svg width="420" height="300" viewBox="0 0 420 300" fill="none" xmlns="http://www.w3.org/2000/svg">
  <circle cx="210" cy="150" r="118" fill="#EAF5EE"/>
  <!-- dashboard window -->
  <rect x="92" y="74" width="236" height="152" rx="16" fill="#FFFFFF" stroke="#1A5C38" stroke-width="4"/>
  <line x1="92" y1="100" x2="328" y2="100" stroke="#1A5C38" stroke-width="3"/>
  <circle cx="108" cy="87" r="4" fill="#85C49A"/>
  <circle cx="122" cy="87" r="4" fill="#D4EDD9"/>
  <circle cx="136" cy="87" r="4" fill="#D4EDD9"/>
  <!-- bars -->
  <rect x="112" y="170" width="18" height="38" rx="5" fill="#D4EDD9"/>
  <rect x="138" y="150" width="18" height="58" rx="5" fill="#85C49A"/>
  <rect x="164" y="160" width="18" height="48" rx="5" fill="#D4EDD9"/>
  <!-- line chart -->
  <polyline points="116,156 150,138 184,148 218,120 252,128 296,104"
            fill="none" stroke="#3A8A58" stroke-width="4" stroke-linecap="round" stroke-linejoin="round"/>
  <!-- highlighted data point -->
  <circle cx="218" cy="120" r="7" fill="#FFFFFF" stroke="#1A5C38" stroke-width="4"/>
  <circle cx="296" cy="104" r="9" fill="#F2C94C" stroke="#1A5C38" stroke-width="3.5"/>
  <!-- gauge mini (ITH) -->
  <path d="M214 200 a26 26 0 0 1 52 0" fill="none" stroke="#D4EDD9" stroke-width="7" stroke-linecap="round"/>
  <path d="M214 200 a26 26 0 0 1 40 -18" fill="none" stroke="#3A8A58" stroke-width="7" stroke-linecap="round"/>
</svg>
