<svg width="1280" height="720" viewBox="0 0 1280 720" xmlns="http://www.w3.org/2000/svg">
<rect x="3" y="3" width="1274" height="714" rx="26" fill="#FCFAF1" stroke="#E7E0CE" stroke-width="2"/>
<path d="M71.85685037169046 110.16467480991273 C71.85685037169046 110.16467480991273, 71.85685037169046 110.16467480991273, 71.85685037169046 110.16467480991273 M71.85685037169046 110.16467480991273 C71.85685037169046 110.16467480991273, 71.85685037169046 110.16467480991273, 71.85685037169046 110.16467480991273 M68.89523405807587 235.09013204228117 C95.6985559366997 204.97548178671912, 117.87029504078438 180.71411730989502, 181.24096272562227 111.48882546428077 M70.92532781652524 232.68695754549125 C107.26420695173672 189.74649571526265, 148.11943322559296 146.1264403327875, 179.15618887400393 108.2295287497051 M73.08613764945692 355.0880934527579 C129.27921822175762 287.74512438486164, 185.4029557766828 219.35685195246145, 283.2262534196355 108.26189888873033 M71.47541939228033 354.726059650372 C144.76435697858926 270.49988616885923, 217.22212882557815 188.21281978537567, 284.1732256945688 111.27040750408551 M71.52583794926916 475.25947677216834 C183.8100736489657 343.92220194399664, 296.8425529888201 213.6106990124225, 389.60820409559415 108.84671533151749 M72.34148321248396 476.3838023536023 C153.53376214682618 378.20077301169516, 236.49010654981723 284.83613489323494, 390.80217175332643 110.14538747806446 M72.53273585197404 596.9298946679643 C227.95313341786218 418.57353220958913, 388.46899495385816 235.23863804460174, 495.7237448265982 108.95744915984658 M71.53031650752344 598.3610919956626 C204.07145045684356 441.87868781045944, 338.7648076693912 287.5329217939335, 495.07967910062166 110.15192941161324 M168.43284370584502 610.4912836791549 C320.0244303193218 436.4314644884973, 468.61986020375156 262.54509355278236, 603.2588416668738 108.6744297256807 M166.95322327783254 610.1784265818435 C319.6804266650441 432.5494051855876, 474.43744815454534 253.51852419532642, 601.3748616089507 109.76152127998829 M272.2747468489016 610.1877759484377 C441.1906486004358 421.82117522176844, 603.5616973164703 231.9320884818492, 709.0363987859447 111.49111077996533 M272.45209142706983 610.0681618613764 C408.60905654408754 453.8076780873173, 544.6159710796429 296.99609938026697, 707.757427232425 109.74744603766429 M380.10297619898154 611.1103618026557 C499.9034446302131 469.34939494063826, 621.3204434899606 330.80079125582273, 813.1690845237648 111.30346882057451 M379.4699067242892 610.8624791970728 C468.5375590177061 506.84682824791486, 557.1362515377388 406.07132505249774, 814.3636137732376 109.61383430711857 M484.1577582045482 611.3416287112312 C583.2208166912033 496.6213724844683, 684.6361806712247 381.6539254270618, 842.966869246192 197.82764792991847 M485.28731772609444 610.8881904112834 C629.5048184468648 444.15656036597267, 773.0161682699139 278.4471145985863, 843.7775407938378 197.16014996552317 M592.32019884761 610.1844631020841 C662.1848467070274 529.5238439754553, 729.9421123938895 451.1001773899452, 843.7145247748507 320.61183156011833 M591.3638503891007 609.5130908595388 C654.0065765262657 542.1279781473555, 716.2677749339479 469.7937933378514, 845.2082549691016 319.9321671375847 M696.5993647519947 612.8120954773372 C749.1526023161049 545.9293922991875, 809.8558289587913 480.4915688860011, 846.455774157486 441.58678470571726 M696.2440963109392 612.0214439331918 C737.3739849774288 568.0127488831174, 776.0381490057134 523.0254372691625, 844.9609790945993 440.52322023244653 M801.9123640171556 608.3149768987316 C809.9935920263664 599.565432687116, 819.7540234745651 587.0537029154438, 843.0054657184698 564.2466824319841 M803.5029595142761 610.380192323571 C814.7940377554871 594.2718173045461, 830.8724304428613 579.1185353962871, 843.7497937947138 563.1966241976314" fill="none" stroke="#FFFFFF" stroke-width="0.1" stroke-linecap="round" stroke-linejoin="round"/><path d="M71.26929837715223 110.87498698702966 C338.48984530360815 105.17814891571211, 602.3962222812644 103.9526420176502, 845.2213402151497 110.17307012995339 M71.96914012421593 109.68766485137465 C274.42298186874694 112.62639476081624, 477.560084353438 111.7981827362828, 843.6225872995271 109.54067582992631 M844.1631076452122 110.05354123082525 C845.5612465385976 298.23247644784925, 845.5630014850553 487.26059887950277, 844.0176255516765 609.7017097981034 M844.1465755234881 109.64073635851484 C845.2341057949809 292.1269219965702, 845.1590086616364 474.95132050553104, 843.746304702751 610.5911252143062 M842.7676078640134 610.8977012559636 C630.2307509183097 606.0401745305219, 417.1715719544708 605.9677342104985, 70.8708710997863 611.0404671245587 M843.3838449204999 610.0382438152785 C606.0761208362783 616.1308971048102, 367.26648988121855 616.0471827439692, 71.51094485707506 609.7984600992842 M71.68335095788942 611.2223044512166 C74.95386574187584 496.53921072281844, 74.94166127539192 380.05345284691816, 72.99557969868424 111.04407638845286 M72.21433723515302 610.0176863677042 C69.59668068411695 469.80945762609645, 69.17394344565409 329.8548236408714, 71.39827307770344 110.5131973346671" fill="none" stroke="#E7E0CE" stroke-width="2" stroke-linecap="round" stroke-linejoin="round"/><path d="M539.9570684015478 150.04938715453102 C539.9570684015478 150.04938715453102, 539.9570684015478 150.04938715453102, 539.9570684015478 150.04938715453102 M539.9570684015478 150.04938715453102 C539.9570684015478 150.04938715453102, 539.9570684015478 150.04938715453102, 539.9570684015478 150.04938715453102 M541.3815915349766 164.90677133354657 C546.4429063537195 157.8983705926157, 547.3014821051121 152.8550515195122, 552.9620348407865 151.97550221159378 M538.5924224315634 164.16768769662886 C543.1217510668284 161.47460372799603, 548.8697695795964 157.01863986488965, 554.6374634912539 150.00847345757336 M542.7238176488178 178.1683609237319 C545.5661799270248 171.44904864178147, 559.6939741863338 161.04882733799386, 564.9089453862067 147.4079773940542 M540.4788562967436 181.26373479271913 C547.5893570339667 171.29395462529487, 556.5487581270951 162.08005972120483, 564.9716915752043 148.98563484661827 M543.6333518708236 193.43798285199944 C553.054713363765 182.3092755349643, 568.9331613176876 163.97999959174132, 576.3327285718522 147.84185643707312 M541.3564504682992 195.05771491595354 C549.8221285313218 184.34174069397844, 558.5726533186617 173.3847067838333, 578.8366989666293 148.92404187433007 M539.9852865290569 212.24084022391546 C551.6409956170987 194.26770551948636, 571.0042989721935 177.69348561114433, 589.85877229166 146.6217091750098 M540.3988626677975 209.98353517807445 C560.0713324029364 188.0067509239029, 580.1733315813667 163.21661054236955, 594.3093161615709 150.31227819314248 M540.6488109196978 227.7258835720318 C562.4519649108621 202.0693010427664, 581.9581961264123 183.41296981088954, 607.8382406769134 147.5914288061391 M541.1225398650241 226.27050450152382 C559.5969528522111 202.36998761590874, 580.3051029327094 180.84300552983714, 605.1247683074145 148.37184938893796 M541.4119344242495 243.69208544626863 C573.2645741472224 209.18155805728904, 601.9349291199454 173.0634882563993, 620.005270089269 148.07176039787387 M541.0436222265238 240.8268461212906 C567.3781591431633 209.93916374539182, 594.9637504474964 176.10775431003773, 617.7830620706878 150.93023129399438 M540.4636171821862 257.75770708567495 C565.8423965494824 225.01076321611723, 590.2659446365143 199.30672334245895, 634.5203158104515 150.23363026660553 M540.4452774763133 256.35428304159245 C566.5911490153115 227.95124183585182, 592.7528131369265 196.28964592182908, 631.7905659544737 149.72894319072438 M540.3579064647826 274.3676940916407 C561.5556761068963 241.57162450082927, 590.2925395029644 215.6083152280528, 647.1338634573531 152.69145872455633 M540.061050684155 272.4472688560199 C559.8972909400088 249.05202471228702, 584.1959728335997 223.33111553818213, 645.2031305994078 151.02103641490828 M542.4705709440242 288.03960210653383 C564.3421174253443 258.59212983621586, 592.9892660193295 227.95669787205415, 662.0539352698047 151.55254324911888 M538.6626185193828 288.1609390758101 C578.8742013029068 242.6045129849092, 616.6215622436561 196.21360319395836, 659.5210686598678 151.90557440363568 M537.5560278000393 299.92740188253026 C569.6791187010181 266.48233950725125, 597.599767932043 234.63513092843291, 671.3706865917165 149.99231813332938 M540.2029933474078 302.39591365346666 C583.7804283272523 247.54811630190778, 630.4874146283616 196.67202900298633, 672.3077680374246 150.1102455789509 M538.4679514867843 316.59700033096243 C592.9393811868451 261.9264735672854, 641.6458956706977 199.6478100143537, 687.5993617455865 149.03811291852557 M541.0428907026695 316.528896056621 C575.7864332723125 272.76592988609445, 611.8622809994982 232.0832909033101, 686.4075956617701 150.6276244075191 M541.1717663302829 332.4176492282655 C600.8287855152914 261.7920467704409, 659.2335864753343 195.1901928068082, 698.5590477844105 152.8538118198521 M541.1113876057526 331.76848764133797 C590.4844167561592 277.9902727839933, 639.4906859610932 223.83924672350452, 698.200950282749 151.08732562303908 M540.6707159233034 349.33419674234835 C580.0077089469833 299.2071602100172, 616.7799426197272 254.41368204602355, 712.7519889348065 149.94648276093235 M540.818551087449 347.1838744891042 C587.0425868734658 292.1948913754065, 636.7740706012007 235.6102269618099, 712.6835768616141 150.16799553099486 M541.7284835255558 363.47154514129824 C590.8307188469128 304.9729848771026, 643.8905448157183 243.4267066323277, 726.7147542040132 149.92505567361476 M540.0823649967997 362.9131271736024 C592.0077717677476 302.50941739001485, 642.7040887691174 244.09434458200653, 725.5754829410828 150.06481419587016 M542.2606565146898 380.64598434117534 C579.3641867451344 332.95014440620173, 619.2537918243805 285.405044400201, 738.9019268632354 152.45178325693192 M539.1281756548947 379.4094149012947 C585.4486875806359 333.99862150812794, 626.3037042492507 286.7191060906305, 737.9688184500205 150.56665254991725 M541.6254343157494 396.2181126806321 C599.4967067964725 321.8999130336909, 660.3291808868398 254.66408644737254, 750.1253790630568 148.03498637798353 M540.2977425470697 394.3267983254521 C581.3808449404554 344.7412401914862, 623.2782508388875 296.23075491690713, 752.1097829380006 150.04186649067094 M538.8136315304724 407.55870009968186 C614.7695173126042 323.7209265362611, 687.3685501041803 237.35798519141213, 766.3536574476661 150.80039041392698 M539.3715989038313 408.1822571413491 C624.3095733179881 308.6888010346234, 708.2847572242321 208.95688329497148, 766.4344024639078 149.6930218850605 M539.0152980485475 422.74985053999796 C603.4629486906358 354.3035872827212, 667.0708853613627 280.6116723700859, 777.2537697277908 149.581114959317 M541.0154096435177 423.8657591750373 C597.2992757330692 360.3739766116807, 654.2123016076649 292.6901262044375, 779.0809394369187 149.6650336348584 M541.4741127022181 438.43150349733224 C636.0869534893083 330.66283016452275, 731.0793412379003 218.15371351095092, 792.3016627642957 151.55244942006473 M540.2972400280278 439.84614380904594 C594.5520162973273 381.61921766008226, 648.5262183107901 319.14794373874736, 791.8195307507298 150.8187340368468 M540.0341607303575 454.7990209886949 C590.749291143817 389.6911787556482, 645.5251521495782 331.2123291150083, 802.8408423516271 149.37670132947773 M539.7535844466465 454.9816659983579 C638.3811163159567 337.4671455110507, 736.6958843828226 223.60045470072427, 804.4940574787926 149.76576667385163 M538.137338459269 470.35947466560646 C610.1416441046811 393.6520226291437, 681.1775369269283 312.9457946052129, 805.8331940337881 166.9583286813606 M540.0120328846225 470.68968347753207 C611.755381207203 382.3951563908556, 684.823149954979 298.07184150752596, 805.3300227117493 165.6279588828902 M541.0380595581818 484.86043137533864 C630.2179049960346 381.8723121305179, 722.1573803860847 273.23228829959146, 804.2360782301752 182.998705498692 M539.3460908820259 484.74113874494935 C600.353688428323 415.37530077715405, 659.4001710402405 348.5154868654143, 803.7475352070422 181.77136082749522 M539.9361508602647 502.00246505396666 C592.3855288156814 439.48231097510836, 643.8354087230273 377.62930784420723, 803.1033205327816 194.51546038525726 M539.0376970538566 501.1151118935429 C637.0409487122884 388.3400847424747, 733.5315396621904 278.9248566104254, 803.8640506633928 196.1578632845191 M540.0320066555969 515.433333935933 C612.4525682005711 439.19189440974407, 680.5110317899394 356.5596673880431, 804.6706601473759 211.28855196265596 M540.7987972765369 516.3835857455518 C620.5499560176072 426.0961295549367, 699.4699963843967 336.5451705948241, 804.990658700079 211.35815378112275 M539.0203851474768 528.9709395344812 C623.402430013574 440.5146068668047, 702.4779187398509 348.9273297307021, 806.1844841335574 226.19127954940092 M539.3975369486911 530.9541725397572 C626.6848549910495 434.36432255817914, 710.9103244471997 337.110391099997, 805.2683091802304 226.42247408308728 M552.6444748704228 531.9658364839266 C617.9376650084147 454.41674593157694, 685.201890640677 376.1967937999575, 805.8492560020769 243.26370936283942 M554.300626206146 529.8443034296433 C638.5091481353134 433.51234298987833, 724.127338947912 335.2778609867317, 804.1246745687221 242.92569283151425 M566.5848165604481 529.3126603138536 C624.0354897606082 467.47710365849156, 682.7377484220383 400.57161864361393, 802.8130530351605 257.4424246442896 M568.035396011973 530.1238594964631 C644.6268498565139 446.211052774026, 721.6783428771729 357.022862599763, 805.2266247324726 257.67704777278715 M578.2631041681542 532.6648892499289 C659.2209085204365 433.95933461993076, 743.0977809312701 342.176766758773, 806.0244323774494 271.9143844493268 M580.7269620584852 531.0141083541473 C637.028852261333 465.86006053793466, 688.5958015898718 405.38451987208316, 803.3314517689297 273.2196671592676 M594.0625381437162 529.0813450320906 C656.5927932301882 458.468149338157, 723.7659771675741 382.77110173400985, 802.9123835909544 285.12121461174723 M592.4576377600305 530.6662655437755 C665.9186384898736 452.7769304824443, 734.686139573344 371.1601483665405, 805.172035930352 286.7789371906078 M605.0993634183972 529.3298501711247 C650.1517195228205 478.10281856653324, 695.4310412390101 428.7524726605705, 805.3288335221223 303.42074136713677 M606.383227534969 530.0946504312926 C670.8293149620112 460.26988701082394, 730.1355683596813 390.0644250002727, 805.4390196665904 302.6895096458526 M622.314489369675 532.5496433325233 C680.69671789148 459.47383896802336, 740.8003286716024 388.96368455025015, 805.4764044150044 318.37871800291424 M619.5629339949911 532.0038290659002 C675.1256770371187 468.09888257509914, 731.0420981079436 404.2210624004937, 804.5008254631481 317.3294480839622 M634.9015532963438 530.1101780693133 C673.3827927342409 480.9952375113327, 716.664314142437 430.3060135659321, 801.858839778711 336.0553725542622 M634.2555872324077 530.7969727552805 C673.6939315212217 488.93787451012076, 713.202413351912 445.60823468220974, 805.1092666250468 333.15388272416305 M647.6428231085384 532.024370912737 C703.6412029613313 469.7751349478864, 755.7317584257044 407.26528882430284, 805.8791079218229 347.49829870149216 M647.5755943269029 530.774603537356 C682.3397197948963 489.23160482581716, 717.5157243629548 447.36901951682324, 804.5290550117269 347.8517744619126 M661.2862084703239 530.6367816027762 C704.2657614247317 473.8762761063325, 746.9528539217104 422.13213625610234, 803.0946763835166 364.5799575309905 M659.7306544144412 531.2542126437007 C702.1054815496775 485.5453360291784, 737.6731051960528 441.41666778827573, 804.8915511946665 365.1936792421653 M670.6272060010509 529.047524317027 C701.6932189934332 493.0259746368766, 732.6145430365453 456.4867610610353, 804.320325635092 381.6609909138984 M673.1691746725378 531.5795134506782 C715.5180574701853 478.416942906864, 762.1237189338704 425.7582876289989, 804.1942964562311 377.70692820613027 M686.2597908141446 529.593635381339 C712.3888355284549 500.1878434110634, 743.8686859629382 467.15633947323346, 804.5005139702588 392.23939707160247 M687.6445667935601 530.0566805479228 C731.227971686767 478.9461714026876, 778.2841447122595 426.14428699306194, 803.092952960703 393.31328619377894 M701.5395919135556 528.4494433793166 C733.4772421857857 486.47303251898103, 772.9630816555804 441.3825525201641, 802.3215471267896 409.19629686941295 M698.1067429883703 529.7858135108288 C726.9973723047468 500.47214301643396, 752.2688580251639 472.04292605595276, 805.3508164881879 408.14101161583363 M710.6562307475132 529.7819219453716 C735.9456477368353 501.25891738148044, 756.8093846818182 478.06309552213935, 802.478706521159 425.0411278050743 M712.975575481233 532.1024546095387 C740.7784185000942 497.1279154998807, 768.7044794079677 464.4081536137511, 806.0271437235859 424.2330366537783 M726.9094157352117 529.4158248033141 C750.9415171744557 501.222130775973, 776.1871241963252 474.75385133208505, 803.113863821293 442.5423778904963 M726.4930974153053 531.2929092580259 C758.6985243126155 494.64688328540666, 789.5990020358144 457.03615015205, 803.3718427497353 439.87253531799246 M739.5462257890272 530.1826134750208 C768.7618385240961 500.8644913168401, 795.3865699969583 467.11900749673697, 804.8337613259052 456.30402744136364 M740.8352265690168 530.4798546801986 C760.8870038107469 506.2425239628752, 784.4937034274302 481.44258505201594, 803.4203018414312 454.90239112009687 M749.7981107260887 528.457932390082 C767.724796810158 504.5877434068734, 788.7881339525634 486.9136649133353, 804.3472160951302 468.1619985524196 M751.2935265902764 532.1067707603205 C767.1943423023762 515.0543415535582, 781.2127984280481 499.69010281257357, 804.6450756344861 471.0998303056817 M767.6214837661149 531.6176018728855 C777.9372608128704 514.5762202166962, 792.3097645388099 498.9006147352756, 804.8520954418299 488.16849436413156 M766.9381028755803 531.2543155266167 C773.863567992028 522.771740722728, 782.610288785309 512.9287169123397, 805.7828558214716 486.2995787277169 M776.8560456758439 531.7747578948293 C789.6836594731017 522.064057786663, 791.5893245297073 516.1884207577825, 802.5162754318842 498.0380468168097 M780.6736868622262 529.2311802272743 C789.0736043711645 517.6558101321452, 798.4692063070106 507.0328674261891, 804.8565865007317 501.6739840178047 M789.891815031413 530.8905533372592 C793.89703488165 530.9949163085166, 798.5724391455725 527.9742834016151, 803.056702841392 517.9467847836748 M791.0292927363938 529.6773705929767 C796.5162013742449 526.3140588752918, 801.2421284619321 522.2468224744794, 805.0755095688891 517.2213118328334" fill="none" stroke="#D4EDD9" stroke-width="1.1" stroke-linecap="round" stroke-linejoin="round"/><path d="M128.41459245223547 180.82653807188103 C302.01143619391155 184.58606674430558, 474.91041031721267 183.60403585454964, 804.7604161796683 178.76277177076847 M127.34900744688035 180.32073953105348 C384.04838643815134 184.76596032130033, 638.6900098950147 184.18227949127626, 804.1204034288769 179.84530065129553" fill="none" stroke="#E7E0CE" stroke-width="1.6" stroke-linecap="round" stroke-linejoin="round"/><path d="M127.97666968858618 279.4722904302409 C300.03936399915386 274.65561289694534, 470.89228150621705 275.25095035984907, 805.2332764993937 278.79044073209343 M127.51498817327729 280.4598994463219 C317.7702030578907 275.8919842438726, 507.8170540746845 275.9579049556849, 804.3298100642805 280.5327818327286" fill="none" stroke="#E7E0CE" stroke-width="1.6" stroke-linecap="round" stroke-linejoin="round"/><path d="M128.21427968330636 380.51896011750534 C279.74074392036897 383.1155363286386, 430.5920271492914 383.3645542185597, 804.7720006742256 378.668910550841 M128.03786247033597 379.5818853159837 C320.6469217020685 374.6695862929938, 513.7448979280972 375.0032819596409, 803.5572172892039 379.8089974912365" fill="none" stroke="#E7E0CE" stroke-width="1.6" stroke-linecap="round" stroke-linejoin="round"/><path d="M127.17639114290363 479.304389272099 C367.719235184244 477.4968816791182, 606.5039277016634 477.4987694919613, 805.0942312014762 480.1536512111494 M127.54781752109155 480.42333399226425 C337.61844253594836 485.57256300894056, 547.9405770769548 486.0522152728638, 804.2296467980681 480.1468955395395" fill="none" stroke="#E7E0CE" stroke-width="1.6" stroke-linecap="round" stroke-linejoin="round"/><path d="M126.54492545202598 148.42330656327331 C127.93174593718723 244.4185807988833, 127.44302224067322 341.6889397482984, 126.65208617289726 531.2152227638861 M128.20815172247504 150.06779260022037 C127.32843642516373 259.81431866867047, 126.95602169879349 369.9011576284264, 128.4244852950604 529.7920529127356" fill="none" stroke="#2D2D2D" stroke-width="2.4" stroke-linecap="round" stroke-linejoin="round"/><path d="M129.06935274727445 530.4822023543494 C345.83861287492374 528.9851954402238, 567.4608470172615 529.1053697031062, 803.7484827164035 530.3651256129299 M128.59911863149543 529.787707099409 C305.9622371021573 527.0960304389838, 483.36869997559046 527.3802661448494, 804.2397792071703 530.3545339237195" fill="none" stroke="#2D2D2D" stroke-width="2.4" stroke-linecap="round" stroke-linejoin="round"/><path d="M128.18908949813041 231.2982060071873 C313.21404985653675 237.23497397122506, 495.4900207482983 235.5203327253133, 805.0001207866242 228.88941282949648 M128.55007909372821 229.91602807412897 C291.25015046646513 225.38198092746902, 455.2847899641555 225.82191369505105, 804.1590596937208 229.9298443693933" fill="none" stroke="#B23A2E" stroke-width="2.6" stroke-linecap="round" stroke-linejoin="round"/><path d="M150.19986730470407 469.7700789670321 C150.19986730470407 469.7700789670321, 150.19986730470407 469.7700789670321, 150.19986730470407 469.7700789670321 M150.19986730470407 469.7700789670321 C150.19986730470407 469.7700789670321, 150.19986730470407 469.7700789670321, 150.19986730470407 469.7700789670321 M152.4461999913993 480.7788538839159 C155.58740153259495 476.9703987189134, 157.2306893917706 473.92900078519307, 164.40243518205781 461.9588168659027 M151.16077722533194 482.0303307142973 C155.11752542969947 477.24759492745204, 159.4671107358147 473.34647303880683, 165.6174837640964 465.910767586567 M151.43679721704535 492.9384290568186 C157.56730827555603 482.39201282669706, 164.07913439455686 479.19293098116, 178.77864630158075 461.13862093930175 M148.8793605525613 495.844014365441 C160.2243847342477 484.00265999829094, 168.95617145636933 472.7753543562249, 179.90750353299757 461.1358956437191 M149.83897430538207 503.7810321951427 C166.22665777677574 494.7768451500679, 175.90216741291937 477.69317958864707, 197.24495802280472 456.406142845211 M150.92321962969902 505.95559275379657 C163.45144442924706 490.8316407480389, 175.22935842090644 477.58462004646464, 193.63917889953527 456.7818375173627 M152.4950599078736 515.9649326883701 C159.62483584503903 502.0057797478726, 177.85384676971827 492.6942386456535, 206.49249966450074 450.0510582785612 M149.51050059025152 517.3587211614697 C170.10800852347313 497.15088587282145, 190.5301326794423 474.9272019151578, 209.17896232976526 451.4308429163043 M150.38561323089107 533.0288033751788 C174.85479728211385 500.3267844838449, 197.5974119858294 469.1994053344359, 225.63991973073223 448.64480624315394 M150.54801631469235 531.8264331952811 C166.44057570857504 510.48253153571136, 183.1983931106202 489.50321190552387, 223.51195096622382 444.3804222675876 M158.14330818925887 531.7213281524583 C190.85742998535466 491.2749274273771, 225.51618278421643 459.44323365037343, 237.1923584967662 438.9627865831501 M160.26142316968455 529.3695138543144 C179.3299906708815 510.2678012156753, 198.77343567171434 487.4633114586609, 240.26478738081025 440.4004967830289 M173.76927931140077 530.7458102820616 C188.58064540957324 508.06256256025245, 212.91363537437903 480.7633819800713, 246.5386586357355 448.49673919652076 M170.3127025573118 531.031437206207 C196.76388875232698 503.90852913803775, 219.7339655181536 472.83220270260875, 246.14101966163759 446.2907714030789 M185.24270987106334 531.77780882067 C203.07872970692412 509.6321699549382, 224.16888670530216 488.8103041401024, 257.5264037270125 439.179832460405 M183.6918097043326 532.2711186305376 C200.10914534044474 509.94870029344764, 216.56730753845042 488.33970314873625, 259.6703894084414 438.739102396983 M194.86973983385369 529.9854260298891 C224.85203435328322 495.81031564316874, 257.8810767943204 457.33981571353854, 277.5594288791558 433.79431686327365 M193.74549064079105 528.9097862009341 C214.44039426350253 507.86902199886816, 232.43364755498953 482.59571411942085, 275.03172277034275 436.6182526404468 M203.74159362123638 529.7354272842219 C221.95088704825463 508.40804541733473, 248.05852692355919 480.96455511495617, 291.46477684880654 433.26647032076147 M202.04397550341415 531.0304608895118 C231.0233118678326 498.9080192552365, 259.5655738956075 469.69403016633026, 290.4018022698789 431.7275112144913 M216.06332976504277 531.0292581247095 C241.9503802841759 500.75497568148177, 268.8837520095792 466.7777593999519, 305.5275579977152 427.5899681335895 M214.88725361930992 529.5528829939756 C232.13114765609916 507.5077274758842, 251.10070608685234 484.6908860734679, 305.5055255411991 424.6797021371169 M223.87239769638725 527.2508240821733 C247.3586163514716 504.9944038311647, 269.49831679936517 480.70506870678054, 323.69392132956654 418.1429537775334 M223.74164902976983 531.2754553676182 C250.74345660178224 500.9365242440611, 277.18088311041305 468.6390510872077, 321.71759113708583 419.2282949895792 M232.21500426456785 533.1354308697964 C270.74365496613547 491.12635055342326, 307.3159460654152 453.80770323862697, 338.3471269957074 413.1215601994728 M235.5242814634996 531.6519774124972 C263.869198918024 498.4532563533906, 294.7674414224403 463.56237641407574, 334.0830574898305 414.66535691245815 M246.1916121041868 531.6757314062384 C280.18053435417363 492.15030254442985, 319.12348720410074 449.1751944355178, 344.41696589443796 413.99248412645665 M246.04131857136437 530.3838537728806 C272.9476614882504 499.54078411000864, 302.7369012348669 466.1818344647836, 346.0794203084293 416.3846670043994 M255.6717475724029 528.1307446084412 C292.4983480490069 485.7190153070665, 333.33189238994237 441.0068738149984, 357.9831830337593 419.5042221805247 M257.45185086020234 531.5262979912453 C286.5594237395206 495.7935242626339, 314.41911189587285 464.1495466496273, 355.069918013302 415.94276133000903 M269.11535064929956 532.2811398040919 C302.1878137116995 494.01724282612935, 336.26141951104603 448.9874088251726, 365.992314056501 419.92545661886436 M266.68639165640064 531.1902943020783 C289.26677079450747 504.32186757163225, 310.48973364703846 478.6333894629597, 363.9254480259104 416.90219542640716 M279.2308407595681 532.5132833586972 C303.5734837614927 498.87229650255154, 334.7728151253096 465.6535565148499, 373.6173604894696 418.0448072639113 M276.246553648519 529.3808925244521 C299.333752163089 504.7238621102115, 322.9651474916766 477.4946908554599, 374.9294816827144 419.27496071339374 M286.48857781255816 532.679879846579 C315.59293167665993 495.00401341069073, 347.5489412097254 463.7931466771229, 383.51906507272605 423.36364039512625 M288.3847149089424 530.7832131260947 C312.2377032352538 504.149704686507, 336.08226407766637 476.91494776498786, 384.81598030830025 419.3708652165612 M295.6866561271919 527.7196758227213 C321.2471855703861 504.8943942672473, 345.1819829670024 475.58471601284776, 393.3433842535221 420.2168012795661 M299.00884744171327 529.8889142882407 C316.0200975726349 508.62236044475907, 337.29741307993635 487.5079110639201, 394.9992033617112 421.7043393480509 M311.7870600986835 530.4758827823564 C336.62951884849406 496.35360192272975, 363.42807789636737 471.04804973092774, 402.79932644312294 425.6421719779918 M310.4017946503127 531.5387087620613 C348.7808287909752 486.61800648225903, 386.3143951163531 442.3808558143421, 404.64014024591495 420.9364117061233 M318.43973481776317 531.9421005725598 C339.44416665087783 508.3829815245912, 364.66373006614333 483.33511209401723, 414.0394239562003 426.2379263515431 M319.2467874108229 530.4957774182685 C343.2348404286282 503.0241487791233, 368.67224889851076 475.4448830511817, 412.045965587603 422.65679202044896 M331.3685937634023 528.0006540463514 C358.596730839162 500.8375654830049, 384.7854766683094 468.63156092864847, 426.81239742061564 421.9670318198839 M330.9254238508211 529.3368815813401 C351.9934320144192 503.5223591368454, 375.05178088029686 478.0831824623832, 425.77979283882127 423.2789581636773 M342.0934304298469 532.2917441172802 C372.49998793140736 489.0010689538621, 407.66714177084935 447.43655452468096, 452.4968992566998 406.9564437201216 M340.9067958431134 529.9652462053958 C376.88039744121346 493.10635615341863, 409.6888233157646 452.2335323673392, 450.6118499010478 406.4541339290797 M349.82707434827256 532.934821957294 C401.1385914689097 475.1109913830833, 444.0583230921202 421.01849721686625, 473.9073228549902 388.4601308738801 M353.16757458888617 531.6423531726435 C384.8442911053455 489.665099635633, 418.59842099822083 449.6547072255108, 475.8779524051631 388.3871500753041 M364.7248263507463 529.1050603540496 C423.0248854564701 463.52032005959353, 478.79383378689454 393.8419158122402, 507.5639653710892 357.8601085628881 M362.68860820433025 530.601282399468 C400.02522483975537 488.31300360558066, 437.9972616516181 444.01319920419866, 511.06871369088446 359.3344929520202 M373.3000502357466 530.2550792339534 C419.9348090946934 482.47784921577613, 462.2228164725888 435.20433106523467, 524.2169950215726 353.4963213485948 M372.7196224683535 529.4290133032256 C407.74266167168884 488.820692294487, 445.9223239943428 445.40438623126227, 525.2708676750982 355.6878542128111 M385.6289858304783 528.7276762558082 C426.6025001656985 477.07476079925937, 473.07712322757504 427.9029076419988, 540.6554946760743 352.3608189491215 M384.70994905693374 530.6629174533683 C435.80044440861565 473.318475561183, 483.0223642842811 415.4276922387457, 540.4554744048714 349.5850811175173 M394.8003479662241 529.112689587488 C445.566457697925 471.38823177482396, 495.2422719734224 409.6533391317018, 540.8374587099953 360.9819351411659 M393.0377553918249 531.1766111528775 C433.73507503456295 480.59851454356857, 474.1713651986434 435.8788032311948, 539.4963360214308 362.31018898530965 M407.68715362586056 529.7750006516718 C457.1634938288622 470.2635740734201, 504.6069194479006 410.448419953163, 538.5859860824381 375.26703452282646 M405.14105192072543 530.2610509402969 C449.6345777213878 480.4333532843637, 493.73268563185763 429.7111809704155, 539.9182919571122 374.36322029672016 M413.479641487848 532.8015406021809 C451.40088380278905 490.39748509288216, 483.3533133054103 448.5508056923985, 539.169421584819 388.34843382316916 M414.6659400996363 529.7350719281836 C458.30988121937565 476.60312767908044, 503.62845632838815 423.1400872813646, 541.4046817845982 387.68532031546204 M424.2082115980594 532.3224027722052 C448.64055283270204 495.94590285901165, 479.5160765277869 468.1970472267163, 542.2179086719152 395.9659212393582 M427.60901600980316 531.2591577681405 C459.3290722836471 496.2804493877254, 491.10994788412694 459.3075858165732, 540.015220926273 400.0273421927417 M435.5208287766753 527.2522212813498 C474.2022712419337 484.3969750243952, 520.0941033566061 440.2382162646647, 537.9065529212752 409.1570786648792 M436.86286233411397 531.2074311406619 C463.8411600202682 502.5628407302516, 489.25543228620177 472.8482372237941, 540.3386346993261 409.98848383579383 M449.7703971915109 532.6126584632241 C476.4475094547425 494.65259591296405, 505.587136201421 454.75208781318537, 537.9906700663025 425.60164438842895 M446.84271489378125 531.8750214563951 C473.0070014593259 499.93085542740425, 495.49049040203136 475.178296952196, 540.5133989679545 422.45269620100834 M460.83783537153414 530.29319292867 C476.0311848067886 506.4502521419658, 495.0931682064868 484.3149754029319, 543.5618673627687 436.67366536713274 M456.58066567247215 529.2284164237841 C481.0973933508925 501.56893639876006, 506.8580855975198 475.2343376183412, 540.595434248893 436.47070999441644 M470.82204001681873 528.5236378398395 C491.94329935564446 499.12626919579355, 520.2221849296601 465.1428141770064, 541.225227664847 445.3180376312339 M467.1548295673007 531.8442244205081 C489.32018180259485 506.9144275530193, 507.65774109652864 485.737876481825, 538.4773676705222 447.5909636555404 M479.8254624965026 530.3240081221013 C497.8785775588842 509.6162000127441, 517.7350903326728 491.4214050395625, 541.4774460741241 458.2217239953924 M480.54551716888386 528.8660176584949 C495.52795523405473 516.0264247559646, 506.8328132131554 497.62090216027286, 540.3641879164261 458.69042550428276 M491.77697355196733 528.3727721536217 C510.702090119147 505.2920679523995, 528.2413430765891 480.8468300019469, 542.9227497369277 471.85010146904335 M488.7974588601475 529.1594827221195 C508.0871200054582 508.02066406843613, 527.9251629636121 487.63452869048194, 538.7191047939967 473.7383642578733 M498.8392787596422 527.7885635632032 C511.5070402994387 519.1484920014562, 515.1615388474017 507.4388621146027, 542.6999515209146 487.67804821876194 M499.29986767835067 530.9191068155355 C512.9088143859076 515.2678461117459, 526.086478151462 500.4793114917038, 539.4192873402385 484.13654078808787 M509.75559347350907 526.9151753837842 C518.3378428199327 516.6095269961412, 528.8361067929392 510.4678081415642, 538.9316096436401 495.17766908115374 M510.93720597274734 529.6469917772972 C519.0312524378912 523.0578553187337, 525.5383153354932 514.8435483279754, 540.0561675589162 497.30388960833153 M523.83249352308 531.4012926621784 C527.6975112656278 523.2337430792131, 537.573147355432 516.036712032265, 537.3560649227003 507.1819024861253 M522.7268997293754 528.8334920186866 C526.3519875821337 523.7522459249087, 533.0894280407724 519.2409333923642, 539.566471554829 510.45953490008776 M530.7049898068494 531.2987847841212 C533.6248499029683 529.4081753646321, 534.681935406272 526.9481024598946, 541.2306305722823 519.9436805801308 M531.372240506717 531.0800496487359 C534.0411068273092 527.7261507468577, 536.4065715942571 526.6324361774997, 540.2782798464475 520.6398653520337" fill="none" stroke="#85C49A" stroke-width="1" stroke-linecap="round" stroke-linejoin="round"/><path d="M148.4386542905135 467.12232577788967 C177.16628558442983 462.41543935492217, 201.3150225746395 454.77961452909153, 239.5919607680005 442.6626178262676 M149.6136094495444 469.3343011446925 C175.6500109405598 462.7041321411074, 197.92873574796812 454.51965411120636, 238.58454207384884 438.37143000694414 M243.25104072297097 440.78449369502965 C263.5170195535334 434.05109224755324, 292.95889538419345 421.11215174801885, 327.3678960145214 410.56809087904196 M240.0298384445916 440.51971736510365 C275.6572422025291 428.98863050882363, 311.3497166647758 416.27040053243417, 329.29894044780605 411.56897116070456 M331.3878606511962 406.6042783744367 C347.73846765598114 412.95256019856004, 369.41829277350934 417.8681517080335, 420.57731008436565 422.16610321303995 M331.62564715875624 409.7416740460634 C349.35039873492 409.11371436663933, 369.721524146897 411.59152993364023, 418.45839887413297 420.89836078145805 M423.33703679883365 419.983493604229 C454.60027995521136 395.4328380970275, 486.28870054721114 373.49909773876277, 509.76364136091246 358.6517448676353 M418.3794350089549 419.4079042992582 C437.81739420135324 406.7773419956649, 458.6161077322175 393.59159886673376, 511.2056172530179 358.3814031002041 M512.9642434960317 362.57334837170225 C519.6729704998813 355.4810301704854, 523.9496133092781 351.7166616532518, 543.2000791415464 351.5562631064027 M510.7882503081814 360.2927383603271 C516.6362310592995 359.0003949946839, 523.2005965391766 356.332744460121, 541.1254665691125 349.8232258305022" fill="none" stroke="#1A5C38" stroke-width="4.5" stroke-linecap="round" stroke-linejoin="round"/><path d="M539.0223272423124 347.0234879135668 C554.1957245878896 337.74200655206397, 571.3670652685028 327.5953307144629, 621.684910560144 300.1331834951996 M541.2511040793909 349.220911974989 C561.8582757277567 336.8770045339354, 583.8225220398209 321.1380070161519, 621.6746274546274 300.28247637981127 M619.2747949871335 298.96012714520407 C645.6492261622622 280.7250478541134, 678.8852212880712 263.6798778659746, 702.1075564146622 247.30875014536613 M619.8122753739082 300.553498893372 C647.5082474665338 282.5630352937623, 676.668350155307 263.81336769572795, 699.5116806522913 250.10575658478785 M699.148466479473 249.0163101421331 C719.6856090852366 240.12306936201944, 743.0084343681689 223.20674486037143, 780.1658167586537 211.09942806175758 M700.407525218538 248.48353193840117 C726.6186858113323 235.85627587397542, 751.28262684246 225.09305792341962, 778.3248971449668 209.2296850390977" fill="none" stroke="#3A8A58" stroke-width="4.5" stroke-linecap="round" stroke-linejoin="round"/><path d="M234.163889322111 435.4328372992198 C234.163889322111 435.4328372992198, 234.163889322111 435.4328372992198, 234.163889322111 435.4328372992198 M234.163889322111 435.4328372992198 C234.163889322111 435.4328372992198, 234.163889322111 435.4328372992198, 234.163889322111 435.4328372992198 M235.89068997337404 440.6034844010148 C235.6928285642895 439.1622882494804, 238.74367013108684 436.58862819105383, 239.65096802729082 433.58986300066596 M234.96277739024623 440.7511457159894 C236.0957197938513 438.07502604256194, 238.1947843942259 436.7943296677638, 240.40382712935792 434.37218879365395 M236.5297844636995 447.807926610413 C237.37857209398794 442.4765033688531, 242.34950152524246 439.36914606194375, 247.0145524487251 436.3784893612176 M236.70805575259976 445.8905644951332 C238.4538207332774 443.4363848708353, 240.99445615048546 439.6092357774327, 245.32542863234534 436.51018108037135 M240.6412787772042 445.8734174912765 C242.73585275094993 444.06299906021576, 242.79410588499172 443.6892730535965, 243.9315997198341 443.1918400672409 M241.31540878205635 445.39084575641016 C242.28237246872067 444.6006027778154, 243.12158457231325 443.9375062375246, 243.59705715795923 442.7397683484701" fill="none" stroke="#1A5C38" stroke-width="1.5" stroke-linecap="round" stroke-linejoin="round"/><path d="M238.54015860023765 434.20816993015416 C239.76448819098346 433.5553220696409, 243.56983994830983 432.8042655410325, 244.4910639045763 433.3504124068174 C245.41228786084275 433.89655927260225, 244.15380136232656 435.80901680942964, 244.06750233783643 437.48505112486345 C243.9812033133463 439.16108544029726, 244.404330033531 441.84739806791805, 243.97326975763548 443.4066182994204 C243.54220948173995 444.9658385309228, 242.0814291843301 446.6200629905369, 241.48114068246323 446.8403725138775 C240.88085218059638 447.06068203721816, 241.6497586314112 445.02312109347497, 240.3715387464343 444.7284754394643 C239.09331886145742 444.43382978545367, 234.77074466561766 445.8574793173072, 233.8118213726018 445.07249858981373 C232.85289807958594 444.28751786232027, 234.56186899783393 441.6222701496589, 234.61799898833917 440.0185910745035 C234.6741289788444 438.4149119993481, 232.60201362723524 436.37562856764686, 234.14860131563324 435.4504241388812 C235.69518900403125 434.52521971011555, 242.3680542035489 434.5517822180664, 243.89752511872723 434.4673645019097 C245.42699603390557 434.38294678575295, 243.64588081836928 435.0917881738542, 243.32542680670323 434.9439178419407 M240.38017744327192 432.9759569632332 C241.5338584008178 432.12061288077876, 239.10923313760364 432.5449016907813, 240.0473338281143 433.58133814948684 C240.98543451862494 434.6177746081924, 245.22589840450672 438.35992957178894, 246.00878158633589 439.19457571546656 C246.79166476816505 440.0292218591442, 245.32473931884527 437.8980652122807, 244.74463291908918 438.58921501155237 C244.1645265193331 439.28036481082404, 243.294578572096 441.8137879939907, 242.52814318779934 443.3414745110966 C241.7617078035027 444.8691610282025, 241.11537545101243 447.7065328202849, 240.1460206133094 447.75533411418775 C239.17666577560635 447.8041354080906, 237.53427243402567 444.4407045488346, 236.71201416158115 443.63428227451357 C235.88975588913664 442.8278600001925, 235.6225511406224 443.88449814150283, 235.21247097864227 442.9168004682615 C234.80239081666215 441.94910279502017, 234.15247179442446 439.43439225347333, 234.25153318970047 437.8280962350656 C234.35059458497648 436.2218002166578, 235.03289359613103 433.5182377503116, 235.80683935029836 433.27902435781505 C236.5807851044657 433.0398109653185, 238.4373553544154 436.2973379644652, 238.89520771470438 436.39281588008635" fill="none" stroke="#1A5C38" stroke-width="2.6" stroke-linecap="round" stroke-linejoin="round"/><path d="M415.5677849276593 415.5730968285815 C415.5677849276593 415.5730968285815, 415.5677849276593 415.5730968285815, 415.5677849276593 415.5730968285815 M415.5677849276593 415.5730968285815 C415.5677849276593 415.5730968285815, 415.5677849276593 415.5730968285815, 415.5677849276593 415.5730968285815 M414.2380156903606 420.58843717036825 C416.1922934413183 418.3274540536895, 419.32423614798745 416.74914152135415, 421.9773461407887 416.2872098876704 M414.91066380566633 422.2455485372496 C416.68952303498014 419.5339608219239, 417.85798478905997 418.42365649413995, 420.98067095091466 415.62013100142525 M417.11674150775366 424.1440203206781 C418.8573784056597 422.3141775743074, 422.79796287103414 419.9996811196521, 424.2267646046368 415.6742548586264 M417.47683267098523 425.30555281568286 C420.7481778778059 421.62755529718675, 423.4383989964112 419.8342040072948, 424.87413424656705 417.80164097785234 M423.52607310039554 424.19657708997744 C424.8802136333216 424.4141099052782, 424.7666831691406 423.3045670230415, 426.6711977075821 420.5649837166691 M422.9282143923181 424.86731974294486 C424.13609435254807 423.96640784482713, 424.8984526851831 422.48613835427057, 426.2194961940532 420.9833937909366" fill="none" stroke="#1A5C38" stroke-width="1.5" stroke-linecap="round" stroke-linejoin="round"/><path d="M419.6673493475819 414.7142517569528 C420.77948300756486 414.7201311617232, 423.42319161472847 415.2100341242709, 424.527402129817 415.8230626392672 C425.63161264490554 416.4360911542635, 425.8822634492189 417.22287885994774, 426.29261243811294 418.3924228469306 C426.702961427007 419.5619668339134, 427.57473167801135 421.7632708236458, 426.9894960631813 422.8403265611641 C426.4042604483513 423.91738229868236, 424.32351745866225 424.60652938400506, 422.78119874913267 424.85475727204005 C421.2388800396031 425.10298516007504, 418.9410802487298 424.7389819355807, 417.73558380600394 424.3296938893739 C416.5300873632781 423.92040584316715, 416.01923514529705 423.54528465805396, 415.54822009277746 422.39902899479944 C415.07720504025787 421.2527733315449, 414.9484780173877 418.5412175752354, 414.90949349088646 417.4521599098467 C414.87050896438524 416.36310224445805, 413.78696467554073 416.1199444745741, 415.31431293377 415.86468300246725 C416.84166119199926 415.6094215303604, 422.4191499026211 415.5367007237202, 424.07358304026195 415.92059107720576 C425.7280161779028 416.30448143069134, 425.2971728230801 417.9785705139815, 425.24091175961513 418.1680251233809 M417.8625180594406 414.9966928223535 C418.2758732136428 414.2405179957256, 418.3222005935045 415.31780120591577, 419.1594128495865 415.7545246553951 C419.9966251056685 416.1912481048744, 422.1200818702349 416.88943407393765, 422.8857915959327 417.6170335192295 C423.65150132163046 418.34463296452134, 423.78266723899685 419.24004806820403, 423.75367120377325 420.1201213271463 C423.72467516854965 421.0001945860886, 422.753841201343 421.8572457034267, 422.7118153845909 422.8974730728833 C422.66978956783885 423.9377004423399, 424.55218198629626 425.801148431861, 423.50151630326076 426.3614855438858 C422.45085062022525 426.9218226559106, 417.68365133543983 426.7514211720903, 416.4078212863779 426.259495745032 C415.13199123731596 425.76757031797365, 415.8754212179643 424.92012812682606, 415.84653600888913 423.409932981536 C415.817650799814 421.8997378362459, 416.2582586686056 418.3069378029142, 416.23451003192685 417.1983248732916 C416.2107613952481 416.089711943669, 415.6642122234616 417.0104858150918, 415.70404418881645 416.7582554038003 C415.7438761541713 416.50602499250886, 416.2550487592801 415.5224440780385, 416.47350182405575 415.684942405543" fill="none" stroke="#1A5C38" stroke-width="2.6" stroke-linecap="round" stroke-linejoin="round"/><path d="M535.9661596994622 346.65710514364326 C535.9661596994622 346.65710514364326, 535.9661596994622 346.65710514364326, 535.9661596994622 346.65710514364326 M535.9661596994622 346.65710514364326 C535.9661596994622 346.65710514364326, 535.9661596994622 346.65710514364326, 535.9661596994622 346.65710514364326 M535.4450420212913 353.3270759365785 C538.5647692162532 349.78436728092163, 538.768359937639 349.74962476104133, 542.7064143764364 346.64883151492216 M536.5268173181598 352.400407030347 C537.5294808434995 350.56606900595557, 540.0717982752155 348.5210734633972, 542.1719163192702 346.481977792418 M540.5623076108213 355.0085137723559 C542.8285045431119 350.53094631940235, 544.2466203033915 348.7203443208817, 546.1313629545955 347.02636009955353 M540.4061011533316 354.0060994419128 C541.1062398999326 352.0365737478212, 542.836532296177 350.0985220915716, 546.4283792525849 345.94626911266596" fill="none" stroke="#1A5C38" stroke-width="1.5" stroke-linecap="round" stroke-linejoin="round"/><path d="M536.7859825439971 345.77246309006574 C537.4322529761251 345.24328476161554, 538.9152426683754 345.329679183339, 540.5574526571593 345.3719866114196 C542.1996626459431 345.41429403950013, 545.6407742893323 345.2233396332128, 546.6392424767004 346.0263076585492 C547.6377106640684 346.82927568388556, 547.0081879937529 348.56569233849046, 546.5482617813674 350.1897947634378 C546.0883355689818 351.81389718838517, 545.0094087577575 355.11763710592896, 543.8796852023875 355.7709222082334 C542.7499616470175 356.42420731053784, 541.204021858735 354.2786914575582, 539.7699204491473 354.1095053772643 C538.3358190395596 353.9403192969705, 536.1302924275199 355.3883718499149, 535.2750767448613 354.75580572647016 C534.4198610622027 354.1232396030254, 534.5155856428349 351.67293421344436, 534.6386263531956 350.31410863659585 C534.7616670635563 348.95528305974733, 535.2363230829858 347.6120084279392, 536.0133210070255 346.6028522653792 C536.7903189310653 345.59369610281925, 538.2281074135186 344.41560377256747, 539.3006138974339 344.25917166123605 C540.3731203813492 344.10273954990464, 542.4049840692643 345.7909487113412, 542.4483599105171 345.6642595973907 M539.2861106702908 343.137787170088 C540.1868658962896 341.80325404522034, 539.0548801216017 341.89315216558253, 540.2896336717126 342.5129843139724 C541.5243872218235 343.1328164623623, 545.8590779926133 345.7023258755673, 546.6946319709563 346.8567800604273 C547.5301859492993 348.0112342452873, 545.7771531879982 348.35015491966055, 545.302957541771 349.4397094231326 C544.8287618955437 350.5292639266047, 544.9127886416701 352.37155732438924, 543.8494580935926 353.3941070812596 C542.7861275455151 354.41665683813, 539.8201456710052 355.54121909871196, 538.9229742533058 355.5750079643549 C538.0258028356064 355.6087968299978, 538.8159800388943 354.23329597705714, 538.4664295873962 353.59684027511724 C538.1168791358981 352.96038457317735, 537.7065728028502 352.6637625156114, 536.8256715443172 351.7562737527156 C535.9447702857841 350.84878498981976, 533.1508315630285 349.5292364480508, 533.1810220361975 348.1519076977424 C533.2112125093665 346.77457894743395, 536.5718713833843 344.1143883936113, 537.0068143833312 343.4923012508648 C537.4417573832781 342.87021410811826, 535.3200542302097 344.35671861816684, 535.790680035879 344.4193848412631" fill="none" stroke="#1A5C38" stroke-width="2.6" stroke-linecap="round" stroke-linejoin="round"/><path d="M697.276977922668 243.08006931517886 C697.276977922668 243.08006931517886, 697.276977922668 243.08006931517886, 697.276977922668 243.08006931517886 M697.276977922668 243.08006931517886 C697.276977922668 243.08006931517886, 697.276977922668 243.08006931517886, 697.276977922668 243.08006931517886 M697.8126297488575 251.43710778973906 C697.7135766743719 248.84362255538704, 697.7788484618221 246.1254826122426, 702.0455764398719 242.2532258096748 M696.9910404292476 250.4782276988453 C698.395033999294 247.9532557607389, 700.8571371883527 244.5789176453742, 702.4598141452545 243.0104319674695 M695.5942652203317 255.85561944742255 C700.65640779031 251.07144795173147, 701.0105192884233 247.24965580376386, 705.0714264895033 247.863153703156 M697.841806435868 256.79292566880804 C699.6841127090341 251.50414818358834, 702.674883313861 249.03317073843047, 705.8126218687424 245.04618312916816 M701.3503549179746 255.70612969480052 C701.9607333145194 255.8363593591655, 702.7473620782315 255.2287539709746, 704.0982410101294 253.4408404659984 M701.7135417053087 256.3580369203175 C702.4963015958954 254.90157499955816, 703.3325129600952 253.8206046102754, 704.6205996759912 253.38068441212502" fill="none" stroke="#3A8A58" stroke-width="1.5" stroke-linecap="round" stroke-linejoin="round"/><path d="M697.4008418481308 242.93758016853212 C698.4940873880855 242.25474885690156, 700.0254150649789 242.15760618633846, 701.5296189486907 242.7329301598274 C703.0338228324024 243.30825413331632, 705.9627463743375 245.1321643628099, 706.4260651504009 246.3895240094657 C706.8893839264642 247.6468836561215, 705.0210283792783 248.6614683475838, 704.3095316050707 250.2770880397622 C703.5980348308631 251.8927077319406, 702.6198623235449 255.18535581949195, 702.157084505155 256.08324216253607 C701.6943066867651 256.9811285055802, 702.7032361644585 255.80178165461652, 701.5328646947315 255.66440609802694 C700.3624932250045 255.52703054143737, 696.1246077340402 255.8913142718477, 695.1348556867932 255.25898882299867 C694.1451036395463 254.62666337414964, 695.4341897842028 253.10538538312312, 695.59435241125 251.87045340493282 C695.7545150382973 250.6355214267425, 695.353057417801 249.12028117880197, 696.0958314490766 247.8493969538568 C696.8386054803523 246.57851272891162, 699.7104469475382 245.06867503601245, 700.0509965989039 244.24514805526172 C700.3915462502696 243.421621074511, 698.3035260411966 242.9194937029248, 698.1391293572705 242.90823506935234 M703.6331781284204 245.10069298720245 C704.8395419885333 245.48437767109593, 707.53170187263 247.21846156805907, 707.46452548022 248.7159365433409 C707.39734908781 250.2134115186227, 704.1623185355609 252.71199111540662, 703.2301197739605 254.08554283889328 C702.2979210123601 255.45909456237993, 702.4687618888743 256.42472036989835, 701.8713329106181 256.9572468842609 C701.2739039323619 257.4897733986234, 701.2351703294134 258.03857818473364, 699.6455459044236 257.28070192506846 C698.0559214794337 256.5228256654033, 693.112128304353 254.14597588807388, 692.333586360679 252.40998932626994 C691.555044417005 250.674002764466, 694.1223962137595 248.0518865882304, 694.9742942423799 246.8647825542448 C695.8261922710002 245.67767852025924, 696.7533857526394 246.14798945997697, 697.4449745324008 245.28736512235653 C698.1365633121623 244.4267407847361, 697.856972626148 241.36423421828025, 699.1238269209483 241.70103652852217 C700.3906812157486 242.0378388387641, 704.002636843344 246.25088563571842, 705.0461003012027 247.308178983808 C706.0895637590614 248.3654723318976, 705.9421864490814 248.29609815692123, 705.3846076681008 248.04479661705977" fill="none" stroke="#3A8A58" stroke-width="2.6" stroke-linecap="round" stroke-linejoin="round"/><path d="M703.9490584296367 235.93621126932166 C706.5944349713809 236.8829079508625, 711.5973726241384 241.28021220780386, 713.1841792600006 243.99671555700615 C714.7709858958629 246.71321890620845, 714.2201494776054 249.29219748183874, 713.46989824481 252.23523136453545 C712.7196470120145 255.17826524723216, 711.1338730769672 260.047968541649, 708.682671863228 261.6549188531864 C706.2314706494889 263.2618691647238, 701.4784284525483 261.92100657072956, 698.7626909623749 261.87693323375987 C696.0469534722015 261.8328598967902, 694.1344891092488 263.2117844020848, 692.3882469221874 261.39047883136845 C690.642004735126 259.5691732606521, 689.1501497336048 254.19240818004192, 688.2852378400067 250.949099809462 C687.4203259464086 247.7057914388821, 686.0836391801994 244.45953570017437, 687.1987755605984 241.93062860788896 C688.3139119409974 239.40172151560355, 691.2963679810828 235.79310933559313, 694.9760561224009 235.77565725574956 C698.655744263719 235.758205175906, 706.0062258137337 239.52198603914306, 709.2769044085069 241.82591612882752 C712.54758300328 244.12984621851197, 714.7020694135595 249.56904105480407, 714.6001276910397 249.59923779385628 M710.2880116054661 242.5470471329179 C712.2922125828289 244.8137967902438, 715.5703682913309 247.33249593468634, 715.9378547956806 250.16682115562256 C716.3053413000302 253.00114637655878, 714.4892278536199 257.42374853646646, 712.492930631564 259.5529984585353 C710.4966334095081 261.6822483806041, 706.7903807704358 262.55765734937444, 703.9600714633455 262.9423206880356 C701.1297621562551 263.3269840266967, 698.3303636551922 263.4299137133886, 695.5110747890217 261.860978490502 C692.6917859228512 260.29204326761544, 688.2346684777568 256.5722268914064, 687.0443382663224 253.52870935071599 C685.8540080548879 250.48519181002558, 687.5359028861102 245.79636641423863, 688.3690935204152 243.59987324635966 C689.2022841547201 241.4033800784807, 689.6690113692669 241.16135362543693, 692.0434820721524 240.34975034344222 C694.417952775038 239.53814706144752, 699.6460082432931 238.24264031863243, 702.6159177377286 238.73025355439148 C705.5858272321642 239.21786679015054, 708.9657388202384 242.85951956069954, 709.8629390387657 243.27542975799662 C710.7601392572931 243.6913399552937, 708.2678608776786 241.68339131753865, 707.9991190488931 241.22571473817393" fill="none" stroke="#B07A1E" stroke-width="3" stroke-linecap="round" stroke-linejoin="round"/><path d="M899.714566911003 110.3283532079576 C899.714566911003 110.3283532079576, 899.714566911003 110.3283532079576, 899.714566911003 110.3283532079576 M899.714566911003 110.3283532079576 C899.714566911003 110.3283532079576, 899.714566911003 110.3283532079576, 899.714566911003 110.3283532079576 M900.8106100894812 228.89851000435712 C937.1369861646012 185.52562496105324, 977.3423156970157 142.2839450914322, 1006.7747998985718 112.30296589513995 M898.3014983472639 232.03665584343005 C933.6304674240395 186.88788653534277, 974.6598091336992 144.04689754194519, 1005.3903728167707 109.01122653208203 M914.9572326009921 335.0430159472073 C996.0502450748871 249.24659124393972, 1074.2169027004265 158.15169833775676, 1112.3667859105344 108.30954739381428 M915.7547272247731 337.6457536865123 C962.8335628137156 282.5287812028256, 1009.9487102728357 227.40721610948114, 1111.5848262024329 110.73682295362067 M1019.225516628601 336.11803362926156 C1071.0979604679358 281.2116579233703, 1124.8141067491422 224.04928318002666, 1208.8167738354505 119.67679942628726 M1020.0601298614378 336.2474211231847 C1067.7488924309282 279.82192542333206, 1113.483045102822 227.41164910985367, 1209.3710663705474 120.91993923157249 M1124.7164351177544 339.0861289400553 C1158.5278218220851 303.09171623001345, 1186.1526982697267 268.58035632001264, 1208.2180498127868 241.72979513072997 M1126.4558444672832 337.1676314043088 C1159.0028479135694 300.18966412197267, 1189.0435775514522 264.45985686447415, 1206.4608958101453 244.0554798226032" fill="none" stroke="#FFFFFF" stroke-width="0.1" stroke-linecap="round" stroke-linejoin="round"/><path d="M901.8232669699287 110.08827520585528 C968.2367860714216 103.16885173382053, 1041.6369128061704 106.70595966163422, 1207.5068996507948 110.86683684688708 M899.0500709629358 110.59790642152986 C1015.3673389771823 109.2206784690157, 1132.2414250227307 108.37539620635427, 1209.1065766349036 108.9176380631697 M1209.0190028544903 107.5856952345578 C1210.2047482176613 199.07236608675066, 1206.0338893038515 282.63276627952865, 1205.5348883881259 334.56092028475297 M1207.3798781364683 109.1789165985572 C1204.3952686823598 167.63125626398335, 1203.6051904784097 223.66925554895596, 1206.8113462610954 334.62089871869773 M1205.9940912544178 337.64823278003445 C1085.6921968017032 336.5330979810169, 962.7551301927913 335.50697012830545, 901.4349638825762 337.76687062184953 M1208.1542339178584 335.64252151905106 C1091.0718103783386 332.7395708401383, 975.0607184193149 332.984320672539, 900.6872342561988 335.62389892447965 M899.6374512327385 337.16312813799965 C898.8888982064854 270.3436350270038, 897.7901099106518 208.30674225722586, 899.359892107142 110.57009034506795 M900.6984503676118 335.6964797536493 C898.0692605994262 255.23713650714134, 898.3634227900118 178.71918256664847, 899.9929071019387 108.72823626827662" fill="none" stroke="#E7E0CE" stroke-width="2" stroke-linecap="round" stroke-linejoin="round"/><path d="M964.3924776199615 174.50208117701015 C964.3924776199615 174.50208117701015, 964.3924776199615 174.50208117701015, 964.3924776199615 174.50208117701015 M964.3924776199615 174.50208117701015 C964.3924776199615 174.50208117701015, 964.3924776199615 174.50208117701015, 964.3924776199615 174.50208117701015 M964.7585831502618 187.61261053767277 C971.4432822222795 181.40278345588354, 978.048264330441 174.1287941395312, 979.9094005658817 164.92013199370464 M964.0057822528897 184.06729059374186 C966.5887444392163 178.90505393002505, 974.1031279144281 174.19229197668804, 980.650102212816 162.0393908040966 M957.8963355154032 193.75123809433794 C966.2969080528197 189.4908385930495, 979.9405032227643 180.22848225143906, 989.307969656003 164.88946576630707 M962.3553544442215 197.1689843591691 C970.0450121128746 187.02166521634942, 976.6958897882186 178.66765587470056, 989.3473799452942 164.12325515080735 M959.5730581205314 209.63551489453562 C971.1206006818767 190.31500343946766, 986.363708670015 177.67501638795986, 998.0400897582155 164.99381205367135 M956.5826344862749 208.56567193942914 C973.3732766902802 190.80661632414007, 988.6987371163409 175.18505255907476, 995.4431626028854 162.92000460737896 M957.2501824156052 221.7205063790547 C971.8345820294621 199.1840058311221, 988.7186047945796 182.60512756136987, 1004.0683144605697 170.52709295206492 M956.1609297268992 219.06897021455939 C970.8288632818553 203.71073320659792, 984.9602627908441 188.54233986561786, 999.8881252198807 168.29035605357257 M962.9673986785028 220.63858177432036 C977.2364830784924 205.26341670729872, 981.1626961104508 196.23091146444438, 1003.1012629333954 172.1063780565751 M965.3348496447576 218.62192034137226 C980.8926112940975 202.5456009741781, 994.0251754364347 184.8835788152223, 1006.3823938845675 172.20036785648347 M974.1986664862842 219.6627178812722 C982.8062127546377 206.87252875271898, 989.8910664069448 203.57972846567452, 1007.3671200009044 178.06229585971514 M974.1120972612223 217.9122617311235 C985.1368846732677 205.1734489948159, 994.410231934482 193.36394282971264, 1007.8616132210428 178.9971132950242 M983.7434036928337 222.37496701791537 C992.0205732190052 212.45140079271982, 999.1817420650648 200.19300183901302, 1008.7131907945998 183.46804211370542 M981.2546874657814 220.82149941107812 C988.7628936002118 208.13948763706372, 999.7422435502789 197.71190796653934, 1010.3400400640605 185.6769729046159 M990.3154359825893 219.10582663242522 C996.6778969511339 210.76517680984097, 999.9170475307678 200.44080097452118, 1011.4788669107418 196.87340578446583 M988.29386984664 220.42068672502336 C998.7535843708134 208.7200748090809, 1005.175104655184 201.30158893734685, 1010.049656346029 193.2618716122693 M997.3637682503748 220.75717458987862 C1004.3452882078224 216.47549433987686, 1005.0996539668993 205.13742997488836, 1009.1482462126469 203.5667502912438 M998.7662659315266 219.29958815265746 C1001.0655010663933 214.93862991010016, 1004.3796359840347 212.06911644647641, 1012.6868306336441 201.79361797282127 M1005.2787820278497 219.48047637345928 C1009.0090588125455 215.61338163519096, 1011.2943180130071 214.73318856292966, 1014.3294137275182 207.27812190991935 M1005.8816338526959 219.7520799527885 C1007.5710205658761 215.4735271943878, 1011.5661848746491 210.0891579160753, 1015.4039347518132 209.28704463232177 M1013.2913595986613 220.30153572433343 C1014.7577351085284 218.42448993072088, 1016.330652282753 215.08326432883126, 1017.8045890930696 213.6311185613998 M1013.022541766246 219.32329003251925 C1013.5812171672502 217.85161430821006, 1015.3939286959871 216.51101067711005, 1017.6242810755065 213.72756384311577" fill="none" stroke="#1A5C38" stroke-width="1.5" stroke-linecap="round" stroke-linejoin="round"/><path d="M986 162 C969.9557379479144 161.76227228012186, 962.5243020392816 170.4577405840954, 961.55726222853 192.57032505240414 M984.8082094867963 159.807122766927 C971.9814849902331 163.86042215959787, 964.1028314559383 174.28122638072472, 959.4768830966979 190.36738677013687 M961 192 C964.1809472649727 209.59165933410844, 957.614921808122 214.65826511802177, 950.2359441074066 220.01950308427288 M962.2842004986526 193.73609752171978 C961.6764885712532 204.98386330631652, 958.3988164799962 208.24729742574903, 952.7520653232569 218.1053665231383 M949.4180285093456 218.35685197287276 C966.1946308226943 223.15296301468348, 984.9532137370728 217.93053321624888, 1022.4648262070855 219.47582802638368 M951.325753759529 218.6479688989389 C970.6066936320625 218.60235720378074, 990.1276091208589 218.34870825446444, 1020.244466202099 218.39692584037218 M1020 219 C1016.9173934336494 214.92318284293438, 1011.0224840913364 207.7372835944009, 1009.3485332287752 189.81407619379465 M1020.2295607753881 219.10023233096567 C1016.7883606115055 213.92930983294838, 1014.6284107374287 205.67696597445033, 1011.0600762740678 195.90065265461567 M1011 192 C1010.399343231032 173.09778745851014, 999.1096306607228 162.66419060855048, 985.5853927633492 162.68719189145926 M1008.2010143469023 192.4862905019726 C1009.6804250642374 172.7982625886417, 1001.2151913211984 160.6407044270118, 987.7472259151481 165.64256462672537 M986 162 C986 162, 986 162, 986 162 M986 162 C986 162, 986 162, 986 162" fill="none" stroke="#1A5C38" stroke-width="2.6" stroke-linecap="round" stroke-linejoin="round"/><path d="M996.2371097795857 217.22997357964306 C996.6795574566714 217.93398570643237, 995.9316270776839 219.05743180507366, 995.1691967253083 219.87300531869025 C994.4067663729328 220.68857883230683, 992.5318078702801 221.44946784593685, 991.6625276653324 222.12341466134262 C990.7932474603847 222.7973614767484, 990.2920365992975 223.5320033572244, 989.9535154956219 223.91668621112478 C989.6149943919463 224.30136906502517, 990.2511062863005 224.0960746894323, 989.6314010432785 224.43151178474494 C989.0116958002566 224.76694888005758, 987.6248636093621 225.80248241056802, 986.2352840374901 225.92930878300066 C984.8457044656182 226.0561351554333, 982.3285398561909 225.82113847626022, 981.2939236120462 225.19247001934085 C980.2593073679016 224.56380156242147, 980.4044333880379 222.7205246052609, 980.0275865726225 222.15729804148444 C979.650739757207 221.59407147770798, 979.4168411200773 222.49549514929294, 979.0328427195537 221.8131106366822 C978.6488443190302 221.1307261240715, 978.0406990953938 218.53184273860055, 977.7235961694814 218.06299096582018 C977.406493243569 217.5941391930398, 977.2291203316463 218.8438318276367, 977.1302251640793 219 M994.0955050434981 217.18142742643622 C993.9483185446177 217.5050785859076, 992.2985617837523 217.9096470341358, 992.0888666445929 219.27525278425867 C991.8791715054335 220.64085853438155, 993.1717982592614 224.57674782043242, 992.8373342085416 225.37506192717345 C992.5028701578218 226.17337603391448, 990.8746685560975 224.12529364420325, 990.082082340274 224.0651374247049 C989.2894961244506 224.00498120520652, 988.7854064480086 225.1311241257772, 988.0818169136006 225.01412461018322 C987.3782273791926 224.89712509458923, 986.7420196430639 223.33442415410082, 985.8605451338258 223.363140331141 C984.9790706245876 223.3918565081812, 984.0392011840758 225.700565735996, 982.7929698581717 225.1864216724244 C981.5467385322676 224.67227760885277, 979.2097150601751 221.09335189635686, 978.3831571784011 220.27827594971134 C977.5565992966272 219.46320000306582, 978.0424445699146 220.50901198416977, 977.8336225675275 220.2959659925512 C977.6248005651405 220.08292000093263, 977.247458064654 219.21599433209187, 977.1302251640793 219" fill="none" stroke="#1A5C38" stroke-width="3" stroke-linecap="round" stroke-linejoin="round"/><path d="M1009.2629024793066 155.20677472007065 C1009.2629024793066 155.20677472007065, 1009.2629024793066 155.20677472007065, 1009.2629024793066 155.20677472007065 M1009.2629024793066 155.20677472007065 C1009.2629024793066 155.20677472007065, 1009.2629024793066 155.20677472007065, 1009.2629024793066 155.20677472007065 M1008.4574649704175 162.69050259630325 C1009.0776818739537 161.3757516188164, 1012.3589128800714 160.4048223396693, 1014.3922286600954 155.6096123619698 M1009.2139574692889 163.3622507552533 C1010.250557599058 160.63082281225027, 1011.9040773990092 158.77759150365355, 1016.3124248018894 154.92855122944974 M1009.6289082815598 168.9192842837912 C1012.2498568201225 163.98990479410796, 1016.5013316554522 160.92806857186017, 1019.602458725976 156.82269183167608 M1009.3874881556965 170.14486743427807 C1012.3557120144754 165.10079684338336, 1016.9562091464386 162.6081249014661, 1020.9092608819354 156.8080976192131 M1015.4054866003476 171.75761381636292 C1017.9084676071076 169.5526548854449, 1019.1486830680135 163.3486302567725, 1026.135332350925 162.42671841993348 M1012.0941915867613 174.26954038940227 C1015.9023410236871 169.4642444870968, 1019.2296512059181 165.30563943116366, 1023.7317508320776 161.25770914141333 M1020.7225397195901 175.54892212256715 C1023.0651761190908 170.90477832400754, 1026.5483562288932 169.2995544305407, 1026.7207859903986 165.64076420481513 M1019.0140952398725 175.11343674216906 C1022.8970111457837 171.3252722802322, 1025.6258130826038 166.58151299684332, 1028.7238405929725 164.59301198528948" fill="none" stroke="#B23A2E" stroke-width="1.5" stroke-linecap="round" stroke-linejoin="round"/><path d="M1021.8252794703858 158.35958182727657 C1023.6584406659392 159.70514406937875, 1025.9050277749384 160.1848272829239, 1026.3994325066021 162.20738361855555 C1026.8938372382659 164.22993995418722, 1026.175012352368 168.7156397309302, 1024.7917078603687 170.4949198410665 C1023.4084033683692 172.27419995120277, 1019.986649023948 172.33806678353898, 1018.0996055546059 172.8830642793732 C1016.2125620852638 173.42806177520742, 1015.1655548824377 174.5524046165394, 1013.4694470443164 173.76490481607186 C1011.7733392061951 172.97740501560432, 1009.2183314007171 170.43649253879192, 1007.9229585258781 168.158065476568 C1006.6275856510391 165.87963841434407, 1005.4705210429686 162.25676161583326, 1005.6972097952822 160.09434244272825 C1005.9238985475959 157.93192326962324, 1007.7168002150133 156.06014607010832, 1009.2830910397598 155.183550437938 C1010.8493818645063 154.3069548057677, 1012.4573332679628 153.10850956559685, 1015.0949547437608 154.83476864970635 C1017.7325762195588 156.56102773381585, 1024.3516201905813 162.58317851401105, 1025.108819894548 165.54110494259507 C1025.8660195985149 168.4990313711791, 1019.5975024605339 172.68763067473142, 1019.6381529675615 172.58232722121042 M1014.5561741770807 156.11855337469473 C1016.5310937914346 155.5222634798744, 1019.7876378843214 155.68388378039302, 1021.4554062429843 156.071752054418 C1023.1231746016472 156.45962032844298, 1024.23247375558 156.45112591591652, 1024.5627843290579 158.44576301884464 C1024.8930949025357 160.44040012177277, 1024.1292214878272 165.9907886841695, 1023.4372696838515 168.03957467198683 C1022.7453178798758 170.08836065980415, 1021.4197158219814 169.71193499681965, 1020.4110735052036 170.73847894574868 C1019.4024311884258 171.7650228946777, 1018.8042410558697 174.34124743117388, 1017.3854157831847 174.19883836556093 C1015.9665905104997 174.05642929994798, 1013.6467679319057 171.25078115932487, 1011.8981218690933 169.88402455207088 C1010.1494758062809 168.5172679448169, 1007.2688987402047 167.59773078788518, 1006.8935394063104 165.99829872203705 C1006.5181800724162 164.39886665618891, 1008.5975789871902 161.906801356318, 1009.6459658657279 160.28743215698213 C1010.6943527442656 158.66806295764627, 1012.3647171707114 157.32083991792211, 1013.183860677537 156.28208352602184 C1014.0030041843627 155.24332713412156, 1014.2286808485882 154.22617482710064, 1014.5608269066821 154.05489380558046" fill="none" stroke="#B23A2E" stroke-width="2.6" stroke-linecap="round" stroke-linejoin="round"/><path d="M920.8049809456975 281.15859066437264 C973.4444491916541 280.93415886328347, 1029.0625997037257 278.9171164169544, 1106.346188634965 275.68647535379677 M923.2738330309913 276.4037575375189 C988.8657780643763 276.2631448112977, 1049.146756047921 274.0225671509135, 1107.0312081264115 278.31419459749924" fill="none" stroke="#B23A2E" stroke-width="7" stroke-linecap="round" stroke-linejoin="round"/><path d="M921.0159057688549 305.2288202132521 C953.6679749444503 307.373982526179, 985.1091966419011 306.8433460961424, 1043.7265156548 302.68839763676107 M925.1373106080381 303.4605249521383 C951.684630177432 305.2693913318718, 978.0779851371566 305.4998709914224, 1042.8121005651174 304.3006938239088" fill="none" stroke="#B07A1E" stroke-width="7" stroke-linecap="round" stroke-linejoin="round"/><path d="M900.1960552050189 371.77446428607504 C900.1960552050189 371.77446428607504, 900.1960552050189 371.77446428607504, 900.1960552050189 371.77446428607504 M900.1960552050189 371.77446428607504 C900.1960552050189 371.77446428607504, 900.1960552050189 371.77446428607504, 900.1960552050189 371.77446428607504 M898.9022593945679 496.6578573058339 C930.8511325990479 460.6380819980261, 957.2266376138615 421.879832784827, 1004.7136175818674 370.722567113707 M901.1930060172854 492.168138794967 C933.6881065012819 458.5886497609835, 964.0324601026631 423.7266981146653, 1005.9124943071118 371.65158713086663 M905.2885897178274 609.8260454627518 C970.2625515183546 539.6526801255018, 1034.6060710454617 463.0632241448452, 1111.9046028290575 372.8323578080686 M903.7896506918181 611.4138878056831 C965.3294445885824 535.8853797750718, 1028.9435364816916 462.3543334959952, 1111.6311135205624 370.6960947608984 M1008.1759561251969 611.5928787551918 C1059.9773675424829 555.1555599122886, 1109.1948802645484 495.04592305667103, 1206.1807763731608 382.3593953861133 M1010.7044680459668 611.5777011165824 C1067.346873643831 550.4643897052083, 1120.2696684427772 488.0112161626794, 1209.6301489459127 383.86853123440915 M1118.3086545365227 607.7052173906948 C1151.6035695156984 571.193121576118, 1190.4372600908614 530.9966881154223, 1206.0104069982638 502.94214591094476 M1116.4258365128455 608.9202388032865 C1143.0948969698584 583.3404234540669, 1165.9917859954435 553.121545238846, 1209.4263193365844 505.06385417122925" fill="none" stroke="#FFFFFF" stroke-width="0.1" stroke-linecap="round" stroke-linejoin="round"/><path d="M899.1320088862494 369.79307667441856 C976.710641621957 372.04531748305055, 1050.7247370884522 373.4309457501194, 1207.4991303842964 369.55332357719476 M899.4854603916676 372.0698037445245 C1002.6292273947097 368.40875087745314, 1105.445581258593 367.7512461235152, 1207.6226222660785 372.0957972656807 M1207.7357402739485 374.3076122726948 C1207.6275886269207 444.0788457982252, 1205.6700088404862 519.2350313248535, 1205.3710464012186 608.5684886396822 M1207.9098771742217 372.25486630997364 C1210.5161704032332 441.49764648693696, 1210.2629999751018 510.30932225220437, 1208.7123446130045 609.8805793892303 M1209.3246921166199 609.6712358240246 C1146.9762900411592 608.6090400520956, 1082.7662707549491 610.023734349459, 899.1944710515997 609.6373902543492 M1208.7039702826273 610.3122774932132 C1100.6361804538578 607.6323459131786, 994.9420519055661 606.8942024564246, 899.7139201286122 610.4462840166624 M897.4148439521185 608.7921234644895 C903.7118547432594 547.2762669365527, 900.8839360556898 485.86190112662666, 899.5111232151896 370.2807090350117 M899.4638650061667 611.0205728886414 C903.1942050762613 559.0758913603697, 902.214201980578 506.51955285848373, 899.578258968221 371.5016581109087" fill="none" stroke="#E7E0CE" stroke-width="2" stroke-linecap="round" stroke-linejoin="round"/><path d="M957.9269815988418 402.08399806183814 C957.9269815988418 402.08399806183814, 957.9269815988418 402.08399806183814, 957.9269815988418 402.08399806183814 M957.9269815988418 402.08399806183814 C957.9269815988418 402.08399806183814, 957.9269815988418 402.08399806183814, 957.9269815988418 402.08399806183814 M957.6858198449396 414.14731410143366 C959.2407208958363 411.4547826398467, 965.1154114270756 403.83339631439276, 967.8613140070182 400.91443660779436 M958.5289155537987 413.4193323572505 C960.4733946807008 408.62395003735185, 964.0358835168198 404.8739631975826, 967.5228385307877 402.8006916695543 M960.4885590368297 421.58723118838924 C962.0941527258127 416.0179883795236, 967.1812478414404 411.643664074208, 978.5398929853337 400.4394510585954 M958.2139117130926 423.9321658720922 C966.6093870049071 414.74307687108353, 973.5388179862701 408.2394011385728, 975.7282659448937 401.1964781155015 M958.742901586932 437.07160958595927 C964.5133480940113 425.1187715943288, 971.8451155724701 418.24876381107595, 987.0099985838848 404.27818482182977 M956.8299937470039 435.50868204855135 C965.3624696758798 423.5726655648129, 974.9461188609679 416.5581526195134, 984.2778392039628 404.69512825819794 M957.8502493503596 442.05501385054197 C967.4875319040958 438.47308887461435, 974.0399620597475 425.69469062624603, 981.8514463708623 412.63658262594294 M959.3915968855204 443.3353863985241 C968.9336771688073 434.3641240692771, 977.4827666579049 421.7287467061302, 984.6240933605155 413.9193740849089 M956.4339300694417 455.96499726151717 C964.8297769313916 445.76341371004764, 968.413747132115 438.2072131573205, 987.2293522840024 427.4907925165444 M956.6111701319425 454.76722065692644 C966.5001318394822 446.50047728444105, 975.1914169945449 437.13926283270956, 984.5288277057083 425.5848702327049 M957.2811842932182 463.22140439129316 C963.596884210422 459.2321031279947, 972.7368165631291 448.3066635430531, 987.2394563074057 435.56849112104817 M958.5153683023607 464.73818771677094 C964.6664723098982 458.3818192625716, 973.560467150953 448.7509178915636, 984.495512709452 436.96871288387973 M958.369085609945 477.8640970687282 C968.5981153622774 468.01042780241875, 977.4161687201439 453.0464680261934, 983.2018747732253 446.1664882901744 M957.0410785301524 475.59258894235535 C966.1134229980561 466.5129965525267, 974.5936226365491 455.4907921006529, 984.7437869499505 446.4751725573561 M956.6698434894739 490.4940103027037 C965.9104860125685 478.51103104877456, 973.815784920128 469.08223454484437, 987.6465366769266 457.3591545627735 M958.9518137927773 488.43014384244356 C966.6454733943999 479.05841608681203, 972.3530106650788 467.8528530883046, 984.5902309704371 455.65860495171825 M954.85312381061 497.34336031856753 C965.5986686597025 486.1247248819243, 976.6958547093916 481.216995929865, 985.3382417212473 466.52802499937525 M959.7305364675412 497.5775461534788 C964.2447242849513 490.18810196275945, 970.2108134037284 484.15436839122737, 985.0798683085567 468.3223300232748 M960.2653093381005 506.71221490365383 C967.5622131143186 499.473780478506, 974.9646185447639 487.2065360243561, 982.9215347386943 478.98795576249154 M957.2452431023262 507.5863858106164 C968.510460320423 498.351585108044, 977.0474084812288 485.51147389736, 984.7059144175504 478.98125041262506 M956.5943404735298 520.0989036618057 C965.347487669761 512.4225249838554, 966.5775280569219 502.8282783998202, 983.9611698098788 487.5678088681766 M957.8363397954096 517.8701667154357 C966.9739693118669 510.015602468659, 971.5907282798191 504.55390855277466, 985.1564102057107 490.4147925629724 M969.4059312556284 520.8047558370167 C969.855299857157 511.5276162245216, 976.7132149709643 506.6863699362347, 986.7099968661319 502.46997807116674 M967.7086239295517 518.728308749425 C972.720284457696 513.5648854275059, 979.5551593019219 504.707390037176, 983.0297887294809 500.62286375590014 M977.6410064944553 516.7554715403598 C978.35496447118 517.9769966168518, 980.6700888559265 513.9257042622392, 985.3219390812419 509.5033772548367 M977.2419698594963 518.5562578598528 C979.6490296969434 514.8854299042749, 982.2132613538889 512.4088695609385, 984.234339852519 510.633151092378" fill="none" stroke="#F5EFE0" stroke-width="1.5" stroke-linecap="round" stroke-linejoin="round"/><path d="M960.4142314594944 401.1065945678602 C966.712060345262 403.8077402354062, 975.2843043422274 400.9542136399656, 982.4635496778868 399.87066954425103 M956.5148676350217 401.93375678287595 C967.4083089058579 402.58228763056275, 978.2801983925815 403.4561106923053, 980.3438470399457 401.8595111385538 M980.3631738444559 400.3036287244468 C979.7152415415754 440.81343186232635, 979.7439376561352 483.70158505880505, 983.0518964627544 519.3135512500528 M982.6963684550789 400.8523655097731 C982.7345480669102 441.9268473845381, 982.5112416893173 479.91848595762804, 982.5522368825561 519.5814229121045 M981.1115332091973 518.4040284260542 C973.4276410032713 520.3904619604707, 972.1137277805128 518.4673705672793, 958.8850585385285 521.0821918001542 M983.3162708845132 516.6974545192219 C972.6729542362857 516.744852921488, 967.1959889994434 518.1499944066104, 957.245164498819 517.036873050491 M956.7743011556272 518.702286118934 C959.3435537284199 485.9068958541482, 961.0587570174908 458.81765520993685, 956.9789257905163 399.1543544213041 M956.8746950904069 519.512146589524 C960.5017865096884 487.54377597105514, 958.0677575355994 457.3035065019183, 958.4929599873129 403.2833144955455" fill="none" stroke="#1A5C38" stroke-width="2.4" stroke-linecap="round" stroke-linejoin="round"/><path d="M963.2132500335924 447.75468389851653 C963.2132500335924 447.75468389851653, 963.2132500335924 447.75468389851653, 963.2132500335924 447.75468389851653 M963.2132500335924 447.75468389851653 C963.2132500335924 447.75468389851653, 963.2132500335924 447.75468389851653, 963.2132500335924 447.75468389851653 M962.5216047023829 454.6430699812853 C963.3688355522935 451.0039122110416, 967.3736539376087 451.20365528238295, 969.3452482898039 446.9161650027617 M963.4670950971529 453.802325411808 C964.0345314745362 453.30535356412275, 964.7366851450771 451.1904015704741, 968.5999616367262 448.1627205821813 M964.7466358587294 458.1456943136304 C967.1834253561635 455.521361775541, 966.2941311801 454.2424607218745, 975.0851312211108 445.29214548245307 M963.4426442183985 460.1747487971672 C964.7731368932521 457.0409051573462, 967.3886705340743 454.10211225118815, 974.7502455063742 446.3752391318484 M964.8750735785947 467.0463528274826 C964.7249999181255 460.70919361427707, 975.0623702616249 457.4018673977301, 974.6351807988433 447.42089131578894 M963.4409871580768 466.16118163963796 C967.1790879681671 461.72750093506295, 971.0379271790096 459.399368923533, 978.1738983904957 451.22245483802664 M963.9158818349978 469.3950389533 C967.4465168122707 471.4525568890901, 972.7129352209841 465.2130132090272, 974.793014787879 458.40142628472563 M964.4668897283942 471.14426989323266 C966.6134763363202 469.8767630333586, 969.3261676948548 466.8351950826934, 978.397776031942 456.5029171538272 M961.5735450469931 475.352527265998 C965.7036470797652 473.77803402570976, 974.5745850699111 470.7892286224843, 975.48427080918 462.23138075446934 M962.4756143377845 477.0264999197878 C966.7495315363848 471.5060035784704, 974.0129496527209 467.7587592174138, 977.2272447563611 462.03091902916253 M964.7622840557304 486.7472363388684 C969.5294254510184 477.0195529280574, 970.151538809319 475.5416863580896, 975.5706270323828 465.17328776537875 M963.1328825052359 484.4156743173924 C967.6171284452524 478.2163885731134, 970.3355084566494 474.4326905798316, 978.9979137406186 469.2870867323758 M965.7925313960483 488.9570272582096 C967.8882563502956 486.34586149850503, 974.3144402282988 480.98471525809947, 980.1253206278792 475.821733466737 M962.8848402145818 491.09163886708626 C965.3323440845859 485.29982078340277, 971.4748569599345 481.3791668460234, 976.6102646086035 474.7312690520064 M961.9475119117349 494.2908114335336 C964.9854719554608 489.8504781797062, 970.7726884675388 482.27048946899305, 974.981344206224 483.1123806814043 M962.7340204634119 498.04953352994477 C968.5832046740975 491.5027751497922, 971.2601425037807 486.1280399386802, 976.0147757194613 479.7111356428452 M964.6554704751376 502.54575942236517 C967.6167391831048 497.96955598266925, 970.5170179987415 491.50428636831685, 980.622563178163 484.2314572690979 M961.735464006831 501.45883339208854 C966.4986578177252 497.84338003028756, 966.8816881801293 495.5047530972323, 978.529318625358 484.90194122352693 M961.5333592910318 508.9540159779451 C963.35550829003 502.64043996103874, 966.8970359085632 502.41056917978773, 977.905704718139 490.8105446935356 M961.9798754023943 508.0586448793075 C968.653900750631 503.7935804662801, 971.3258285464524 497.4115021664656, 977.048354320476 494.4577791118555 M963.4435071082967 516.2845716190509 C965.8688828747794 508.9982408848854, 971.2016687980171 509.58950861065733, 979.8642532751904 499.53339594974443 M962.2827986511602 516.0554912359481 C965.0760605668765 512.5199250501903, 968.6474615610549 507.42725141622674, 978.7297018505692 498.1983400618506 M967.2954525897378 515.1874035403724 C968.2602296177579 516.4040337209772, 974.2178790462924 511.41057167826983, 978.6606266295031 507.66494855074734 M965.929665113029 516.5515851190346 C970.0042247033514 514.4503092879388, 973.366253451516 511.20223957985183, 976.9602828265546 504.15763052186816 M970.3078498208974 519.7949457161463 C971.7510900757286 517.3731311815784, 974.98699436819 513.4160475179362, 978.8927668871446 512.157661846892 M971.0417901027769 518.6176433171877 C974.3506529897256 515.2534966411929, 976.9778878431384 511.9527187171213, 977.5885535036172 509.88086810551766 M976.6543786110403 517.6247576782918 C976.7301261560835 517.4663205040132, 976.9237316851753 517.4267617071728, 977.2055510817056 516.7782009829795 M976.5796240975691 517.7844659876323 C976.8539812532582 517.4376591555678, 977.1756625131213 517.0443699684514, 977.3365414886614 517.0043622956305" fill="none" stroke="#B23A2E" stroke-width="1.5" stroke-linecap="round" stroke-linejoin="round"/><path d="M964.6663691085823 448.2890712028208 C965.7605954588079 450.11139852842535, 968.6784017559395 447.36181806576565, 975.8120509698176 448.77630365538147 M962.1109592986329 448.17171072244327 C968.5936535215304 447.10765107478693, 974.0820103944498 449.0109365812756, 976.499867770696 448.60917635406616 M976.2762782776044 451.2156359674814 C980.1590646205121 472.4021627900051, 980.2230292369268 497.3810880719805, 976.8948847924171 515.1085388430629 M976.8244009685404 446.9557591807895 C978.4008118147714 469.0817970376175, 977.0014112653083 489.1217404718415, 978.159218537911 518.6081007898871 M976.3232140798616 515.6212822926616 C971.9345454351104 516.835091259521, 969.2078695314613 516.4678905018097, 960.7609709906924 516.4764235474692 M977.5622629064557 519.1178217912695 C973.1841804010868 518.1749622334065, 968.994424074332 517.0981126225114, 963.4049712554388 519.1459216344027 M965.4711434500011 518.026602036598 C963.2035723877465 504.81525079899126, 966.1384312074794 485.7718687248868, 961.426425533209 450.52265104712757 M962.2818435561563 518.6967387815529 C962.9477692827529 494.129279140391, 963.4418373071483 470.2038990783196, 961.6124514652962 448.71270649977475" fill="none" stroke="#B23A2E" stroke-width="1.6" stroke-linecap="round" stroke-linejoin="round"/><path d="M955.2960021473477 523.0231308986267 C955.2960021473477 523.0231308986267, 955.2960021473477 523.0231308986267, 955.2960021473477 523.0231308986267 M955.2960021473477 523.0231308986267 C955.2960021473477 523.0231308986267, 955.2960021473477 523.0231308986267, 955.2960021473477 523.0231308986267 M950.6725587838495 535.4387461489217 C956.0810446764641 529.6051603952004, 963.9574442666387 525.7203104638388, 963.848627527111 519.2793213809708 M948.9202150636556 538.9073128447211 C956.0291002966977 532.140688170945, 961.5200204961578 524.2915662737648, 965.0432907158671 518.369643379425 M952.380418591258 544.0918298515775 C961.6533410606829 538.1463801252333, 965.5819680336939 528.4876402750936, 976.1501235941676 522.2248526865757 M951.2454664301512 544.3302648108672 C956.7681137957261 538.9177407004562, 960.3324700401704 533.2393042772219, 973.0085768071039 521.2033581050201 M954.5877584259955 548.089784735994 C957.0780896863864 541.9684409453902, 966.4848062705679 539.785314469232, 976.9567128101303 525.2828298363571 M954.8034263325997 552.4707444307566 C962.6155842365233 539.9817157364606, 971.8382215337182 532.0214834323913, 980.1329101002048 523.1341316508215 M957.9044696330869 554.6539840799836 C965.3660810439501 545.5703511851615, 974.9410301294797 539.1681758343042, 986.1509381575628 527.5891924064658 M957.44075055823 556.091185092769 C965.2404215386158 547.7627811175139, 969.7718451513919 541.9435274076221, 986.4129232895244 523.5328423135963 M960.1199047486772 557.0244497291795 C965.7058169355865 555.4896411899064, 971.6689954041427 549.7067639323068, 988.5288024866521 532.9051571574371 M961.3294282049261 559.2809440625877 C971.0775594479084 549.1182513954552, 980.4561615513303 539.8920477050673, 989.5762522164101 530.8887274466497 M969.272912893485 558.980150929333 C974.264119252187 557.8520979220034, 980.1281131684015 550.4106599051695, 993.116652232717 538.8718049311343 M969.3112407794166 559.4118388293472 C977.7851047060169 552.7273475818745, 983.3664065751308 546.7221696894394, 990.4408865843944 535.8532064471835 M981.973092574723 556.9610818736218 C984.0463399684139 550.6067327186895, 988.4243384080099 547.9042902356911, 991.898571598138 547.403958545508 M981.5624355722155 556.96206046822 C986.6780551138822 551.8156530593693, 990.8545173412482 547.4360969629955, 990.8652845161793 545.7955975668068" fill="none" stroke="#B23A2E" stroke-width="1.5" stroke-linecap="round" stroke-linejoin="round"/><path d="M968.51528761055 518.3984274656625 C973.168181424838 517.6154221259608, 980.0453991700867 520.0920635670016, 983.9848501483003 523.2460358181075 C987.9243011265139 526.4000080692135, 991.1482241252627 533.058846992134, 992.1519934798318 537.3222609722982 C993.155762834401 541.5856749524623, 992.608300385329 544.9494927543404, 990.0074662757149 548.8265196990927 C987.4066321661008 552.703546643845, 981.1867715857308 558.7124864279162, 976.5469888221472 560.5844226408119 C971.9072060585637 562.4563588537076, 966.0572220487704 561.9438332998827, 962.1687696942139 560.0581369764666 C958.2803173396574 558.1724406530504, 955.4731341020508 553.1210646389954, 953.2162746948079 549.2702447003154 C950.959415287565 545.4194247616354, 948.3056347732005 541.2993880535481, 948.6276132507564 536.9532173443865 C948.9495917283124 532.607046635225, 949.4401946637913 525.8333467992693, 955.1481455601435 523.1932204453458 C960.8560964564956 520.5530940914223, 977.0163658578621 519.673610198828, 982.875318628869 521.1124592208455 C988.7342713998759 522.551308242863, 991.0231835572134 531.3069212526466, 990.3018621861848 531.8263145774508 M975.3085503623547 522.2476784526659 C979.9208373295123 522.7456069776944, 983.8247138281926 522.089449090028, 986.588224588546 525.2854673616782 C989.3517353488995 528.4814856333285, 992.1721378710799 536.608847930457, 991.8896149244756 541.4237880825672 C991.6070919778713 546.2387282346773, 988.1639791269356 550.8611953297741, 984.89308690892 554.1751082743388 C981.6221946909045 557.4890212189034, 976.3369959685594 560.9246865614595, 972.2642616163824 561.3072657499551 C968.1915272642054 561.6898449384508, 964.603899634726 558.7419728989587, 960.4566807958582 556.4705834053127 C956.3094619569905 554.1991939116667, 949.0201595027094 551.8834749076932, 947.3809485831761 547.6789287880795 C945.7417376636428 543.4743826684658, 948.474961215841 535.9157497244234, 950.6214152786584 531.2433066876305 C952.767869341476 526.5708636508375, 955.9456778640257 521.7139792203182, 960.2596729600808 519.644270567322 C964.573668056136 517.5745619143258, 973.7390645360007 518.7332849687898, 976.5053858549892 518.8250547696534 C979.2717071739777 518.9168245705171, 976.8169218118665 519.427874671201, 976.8576008740121 520.1948893725038" fill="none" stroke="#1A5C38" stroke-width="2.4" stroke-linecap="round" stroke-linejoin="round"/><path d="M992.3057003411532 425.3958180956049 C997.2376362694855 425.9436730666172, 999.2485644746398 427.8823956138935, 1004.9744043824767 427.7405141648803 M991.2386791236289 426.50642536672376 C995.516349932385 426.10719525615497, 998.4822929191718 425.31022740386055, 1004.1616478110793 427.01603587325826" fill="none" stroke="#85C49A" stroke-width="2.4" stroke-linecap="round" stroke-linejoin="round"/><path d="M991.8651860525042 452.64589095073114 C997.5953264211072 452.9234327401657, 1001.2293609441978 454.18957149626874, 1002.701146668286 453.62171892405865 M991.3502542855854 454.88015361638264 C996.3795804770671 453.2676852008265, 1000.1758968076547 454.71381614826527, 1004.5850845419282 453.7302546855255" fill="none" stroke="#85C49A" stroke-width="2.4" stroke-linecap="round" stroke-linejoin="round"/><path d="M992.4504681979528 481.0992386585228 C994.9506711677129 483.30728508072076, 998.885078181474 480.9551181222077, 1002.5985997862853 482.5342952573635 M991.133664495573 481.85922175219116 C995.7670879129493 482.58130818351003, 1002.2746632114996 481.7605439064627, 1004.5301240803097 481.9431773885111" fill="none" stroke="#85C49A" stroke-width="2.4" stroke-linecap="round" stroke-linejoin="round"/><path d="M1109.8747035351996 432.1441370946431 C1109.8747035351996 432.1441370946431, 1109.8747035351996 432.1441370946431, 1109.8747035351996 432.1441370946431 M1109.8747035351996 432.1441370946431 C1109.8747035351996 432.1441370946431, 1109.8747035351996 432.1441370946431, 1109.8747035351996 432.1441370946431 M1084.2980449895244 470.01611317679703 C1093.544809283851 461.54282311407724, 1100.529190967911 454.305111502222, 1111.2289735467443 436.1376002794231 M1085.0357764195733 469.7024666551846 C1093.9754160522898 462.20559088370914, 1100.9483200418733 450.8756122246453, 1113.6524892664522 439.6572476901444 M1079.5127531595451 493.7890314260172 C1091.5637829856835 473.077149939492, 1109.7458909405016 457.32319583851984, 1121.0281756502684 442.52521056960364 M1075.8738597057593 489.85849937185196 C1090.4333443751298 477.0135665759797, 1103.5209801826004 462.40162075931596, 1119.0012481995316 445.4121064341809 M1078.0686672818356 502.17280455331274 C1086.1709998635308 488.2930499050071, 1096.67885488838 478.57195252795896, 1118.674202690041 449.6771287710646 M1073.7862663919225 504.64898717939724 C1085.1529612928523 491.1622459185103, 1096.6957288048325 480.01261366484556, 1122.522506035983 449.68765045190185 M1076.5043013522588 512.6269745791558 C1085.8706319108126 503.5487125796397, 1100.1168477106803 488.28278576571233, 1123.7999930033102 454.8795567633931 M1073.6945579899693 514.4618835114469 C1091.3999819764283 496.3556527427041, 1111.253404984919 476.3731669314178, 1125.7271666138952 457.6773484035393 M1079.956909456297 520.0973933830063 C1093.8448575849145 500.30698988473995, 1111.9347149124503 483.29016990574877, 1126.8645718304865 465.5888134771127 M1077.9034050359244 523.8283574665925 C1097.5772809984917 501.5795682340082, 1116.772519002435 479.7457375678125, 1129.6456654157912 464.333352210835 M1078.8586895835974 527.5867683506546 C1099.3473069107417 502.6842530641654, 1122.6791334880736 480.1394789342592, 1129.8701028003727 467.70596553707225 M1081.9890328198726 530.1791915546096 C1097.1455024500895 511.50347914349106, 1114.0064514248872 490.26036757343456, 1132.704592701938 470.55489701095564 M1084.4907672713196 536.5438066381337 C1093.5350769996624 524.9298830581876, 1105.9171424125964 508.42154836160404, 1137.7314675144353 476.4092489295759 M1085.6388792717219 534.627699530399 C1099.2805524678422 521.8347279715002, 1113.7087471829993 503.2951439379018, 1136.7252111965133 476.82061505085886 M1087.4098631422394 543.1486125126501 C1101.6909281223577 525.4693819412046, 1112.5608434250348 512.5806204093764, 1142.3700844489695 486.4602758290129 M1089.3983349120729 541.9453247388673 C1111.6531587870352 518.2780205260731, 1131.5979232374646 493.3834137205934, 1138.2033982660034 481.5246304199355 M1092.5990091443778 545.2446865136613 C1105.2683296499279 530.1942499337604, 1120.6332890725894 518.3204264031982, 1146.303852037949 489.1506345312797 M1094.7759538656549 542.73979998916 C1109.0953222870276 529.1620329737332, 1120.4360364429679 513.6122066355807, 1143.015406558161 489.8341067018161 M1103.0811757517267 544.364494376436 C1113.3078855969404 534.8321854818058, 1121.2899562661964 523.5430048492605, 1143.4524584666874 499.6107632885178 M1104.180835825248 547.6980074495596 C1117.1568948928584 527.7247015663241, 1131.7161554310908 512.8457332895549, 1144.1991496848552 498.67941451499496 M1108.8319362535242 549.1663382203809 C1120.9936799169445 531.795711602128, 1136.1046473109182 522.1449699503537, 1147.368484724577 510.72102024960776 M1110.6130867547677 548.3312230574893 C1120.409701677 536.8688583249915, 1133.2992492900219 523.1917013924281, 1147.0121315582219 507.25104468885814 M1122.0413682238054 544.0992386761911 C1125.149561279198 540.8499710736336, 1134.5328534866342 533.8199966503342, 1142.2900172577797 517.332878771124 M1121.2367825296396 547.784508698445 C1130.7580131061188 534.2270001544515, 1138.6577605035618 526.863245160412, 1146.085704827494 518.9296100995333" fill="none" stroke="#D4EDD9" stroke-width="1.5" stroke-linecap="round" stroke-linejoin="round"/><path d="M1110 432 C1111.035629734567 431.6682770862663, 1143.6419295830015 477.7290371524098, 1144.2268530364859 510.76603228685644 M1112.8391263592157 433.59736305844507 C1107.266368121671 428.32599243209313, 1149.6146111608598 476.54245096656985, 1148.6244103344343 512.2632324368766 M1146 510 C1146.7192554722883 537.4239124747477, 1112.9420802821476 554.6134691350364, 1093.0160942565856 540.6710000329143 M1146.9362630657388 506.9295035159054 C1148.1099921596892 543.0056842457798, 1114.206842577697 559.2915028383594, 1091.7497006197138 540.9909195572357 M1092 542.9089653438086 C1081.4766434240935 536.1630069810907, 1071.2872042190768 526.8587785371277, 1071.7871234343659 508.65738417587295 M1092.1344032696657 543.2709636706833 C1083.526195952052 532.8086934727976, 1075.7858413619092 527.3996846323269, 1070.7149096681342 509.6095773382565 M1074 510 C1070.7292666399612 477.0516653440166, 1111.6724695348828 432.9313405687086, 1107.3069569218533 434.46734823895366 M1072.8836164847262 512.9414248758928 C1073.8418056981807 475.1330438924108, 1111.8788396679663 433.1799263908559, 1110.2641754704468 434.94245656278275 M1110 432 C1110 432, 1110 432, 1110 432 M1110 432 C1110 432, 1110 432, 1110 432" fill="none" stroke="#3A8A58" stroke-width="2.6" stroke-linecap="round" stroke-linejoin="round"/>
</svg>